junction_light.sfdir

StartChar: exclam
Encoding: 33 33 74
Width: 278
Flags: MW
HStem: -7 93 801 20G<105 176 176 176>
VStem: 98 83 114 51
LayerCount: 2
Fore
SplineSet
163 189 m 1
 118 189 l 1
 105 821 l 1
 176 821 l 1
 163 189 l 1
93 47 m 0
 93 77 114 100 142 100 c 0
 169 100 189 77 189 47 c 0
 189 16 169 -7 142 -7 c 0
 114 -7 93 16 93 47 c 0
EndSplineSet
EndChar

StartChar: numbersign
Encoding: 35 35 88
Width: 809
Flags: MW
HStem: 1 21G 245 54<58 214 45 228 272 471 58 259 529 705> 501 53<101 290 115 277 335 534 115 321 591 762> 750 20G<344 388 388 388 600 645 645 645>
LayerCount: 2
Fore
SplineSet
101 501 m 1
 115 554 l 1
 290 554 l 1
 307 624 326 700 344 770 c 1
 388 770 l 1
 335 554 l 1
 547 554 l 1
 563 624 583 700 600 770 c 1
 645 770 l 1
 591 554 l 1
 775 554 l 1
 771 533 766 521 762 501 c 1
 578 501 l 1
 529 299 l 1
 719 299 l 1
 714 277 709 265 705 245 c 1
 515 245 l 1
 497 166 474 79 455 0 c 1
 411 0 l 1
 471 245 l 1
 259 245 l 1
 240 166 217 79 198 0 c 1
 154 0 l 1
 214 245 l 1
 45 245 l 1
 49 267 54 279 58 299 c 1
 228 299 l 1
 277 501 l 1
 101 501 l 1
321 501 m 1
 272 299 l 1
 484 299 l 1
 534 501 l 1
 321 501 l 1
EndSplineSet
EndChar

StartChar: dollar
Encoding: 36 36 69
Width: 604
Flags: MW
HStem: -69 21G<294 294 294 333> 823 20G
VStem: 90 56 301 35 520 55
LayerCount: 2
Fore
SplineSet
294 -69 m 1
 294 -16 l 1
 189 -4 118 37 61 126 c 1
 76 141 89 151 104 163 c 1
 149 94 206 59 294 44 c 1
 294 372 l 1
 184 408 87 453 89 578 c 0
 92 739 216 779 294 786 c 1
 294 844 l 1
 333 844 l 1
 333 785 l 1
 408 776 461 748 505 700 c 1
 462 663 l 1
 432 692 394 713 333 724 c 1
 333 430 l 1
 447 393 558 340 558 200 c 0
 558 64 454 -7 333 -17 c 1
 333 -69 l 1
 294 -69 l 1
500 200 m 0
 500 285 425 326 333 359 c 1
 333 43 l 1
 426 54 500 106 500 200 c 0
147 578 m 0
 144 511 210 473 294 444 c 1
 294 725 l 1
 232 717 151 685 147 578 c 0
EndSplineSet
EndChar

StartChar: percent
Encoding: 37 37 85
Width: 987
Flags: MW
HStem: -48 21G<173 240 173 173> -7 37 370 33 742 37 795 20G<755 822 822 822>
VStem: 62 47 374 47 586 47 898 46
LayerCount: 2
Fore
SplineSet
62 575 m 1
 63 733 159 778 241 779 c 1
 325 779 421 734 421 573 c 1
 420 415 324 370 242 370 c 0
 160 370 62 416 62 575 c 1
755 815 m 1
 822 815 l 1
 625 522 437 245 240 -48 c 1
 173 -48 l 1
 370 245 558 522 755 815 c 1
241 732 m 1
 178 731 119 705 119 575 c 0
 119 444 179 417 242 417 c 0
 305 417 363 442 364 573 c 1
 364 706 305 732 241 732 c 1
580 190 m 1
 581 348 676 393 758 394 c 1
 843 394 938 349 938 188 c 1
 937 30 842 -15 759 -15 c 0
 677 -15 580 31 580 190 c 1
758 347 m 1
 696 346 636 320 636 190 c 0
 636 59 697 32 759 32 c 0
 822 32 881 57 882 188 c 1
 882 321 822 347 758 347 c 1
EndSplineSet
EndChar

StartChar: ampersand
Encoding: 38 38 67
Width: 870
Flags: MW
HStem: -7 66 729 41
VStem: 63 56 139 55<592.5 656.5 592.5 672> 484 55<578.5 656.5>
LayerCount: 2
Fore
SplineSet
63 195 m 0
 63 301 149 365 249 421 c 1
 184 493 139 553 139 612 c 0
 139 732 246 770 341 770 c 0
 437 770 539 732 539 612 c 0
 539 528 443 470 335 416 c 1
 386 359 482 257 548 189 c 1
 579 240 600 282 640 365 c 1
 658 357 667 351 682 344 c 1
 636 251 611 201 582 153 c 1
 639 97 686 62 700 56 c 0
 734 41 758 53 786 107 c 1
 801 99 810 92 822 85 c 1
 780 -5 737 -10 707 -5 c 0
 683 -2 624 38 550 107 c 1
 490 38 414 -7 305 -7 c 0
 206 -7 63 47 63 195 c 0
285 386 m 1
 180 333 127 272 127 187 c 0
 127 89 254 50 305 50 c 0
 397 51 461 93 513 145 c 1
 451 206 375 287 321 346 c 2
 285 386 l 1
484 612 m 0
 484 701 410 727 341 727 c 0
 273 727 194 701 194 612 c 0
 194 573 239 516 303 449 c 1
 397 496 484 545 484 612 c 0
EndSplineSet
EndChar

StartChar: quotesingle
Encoding: 39 39 82
Width: 191
Flags: MW
HStem: 541 21G 750 20G<82.5 110.5>
VStem: 51 90
LayerCount: 2
Fore
SplineSet
52 724 m 0
 52 750 71 770 94 770 c 0
 127 770 142 737 142 696 c 0
 141 645 117 606 81 557 c 1
 72 562 65 565 58 569 c 1
 87 606 108 625 116 677 c 1
 78 677 52 697 52 724 c 0
EndSplineSet
EndChar

StartChar: parenleft
Encoding: 40 40 75
Width: 322
Flags: MW
HStem: -267 21G 750 20G
VStem: 67 55<188.5 315 188.5 321>
LayerCount: 2
Fore
SplineSet
285 768 m 1
 290 714 l 1
 150 658 122 379 122 251 c 0
 122 126 158 -147 289 -211 c 1
 285 -265 l 1
 111 -228 67 109 67 251 c 0
 67 391 113 735 285 768 c 1
EndSplineSet
EndChar

StartChar: parenright
Encoding: 41 41 77
Width: 322
Flags: MW
HStem: -267 21G 750 20G
VStem: 205 55<188.5 313.5>
LayerCount: 2
Fore
SplineSet
37 714 m 1
 41 768 l 1
 214 735 260 391 260 251 c 0
 260 109 216 -228 41 -265 c 1
 39 -243 39 -231 37 -211 c 1
 169 -147 205 126 205 251 c 0
 205 376 169 649 37 714 c 1
EndSplineSet
EndChar

StartChar: asterisk
Encoding: 42 42 91
Width: 602
Flags: MW
HStem: 285 21G 750 20G<285 326 326 326>
VStem: 286 39
LayerCount: 2
Fore
SplineSet
56 577 m 1
 73 623 l 1
 287 538 l 1
 287 609 285 698 285 770 c 1
 326 770 l 1
 324 538 l 1
 384 563 471 596 536 622 c 1
 555 576 l 1
 339 492 l 1
 386 440 441 378 488 325 c 1
 472 313 463 304 451 293 c 1
 305 472 l 1
 160 292 l 1
 144 305 134 315 120 325 c 1
 270 492 l 1
 56 577 l 1
EndSplineSet
EndChar

StartChar: plus
Encoding: 43 43 83
Width: 634
Flags: MW
HStem: 1 21G 248 49<54 297 54 297 54 335 335 588> 524 20G<297 335 335 335>
VStem: 297 38<0 248 297 544>
LayerCount: 2
Fore
SplineSet
335 0 m 1
 297 0 l 1
 297 248 l 1
 54 248 l 1
 54 297 l 1
 297 297 l 1
 297 544 l 1
 335 544 l 1
 335 297 l 1
 588 297 l 1
 588 248 l 1
 335 248 l 1
 335 0 l 1
EndSplineSet
EndChar

StartChar: comma
Encoding: 44 44 22
Width: 186
Flags: MW
HStem: -143 21G 66 20G<77.5 105.5>
VStem: 47 89<26.5 32.5 12 53.5>
LayerCount: 2
Fore
SplineSet
47 40 m 0
 47 67 66 86 89 86 c 0
 122 86 136 53 136 12 c 0
 135 -39 112 -88 76 -137 c 1
 67 -132 59 -129 53 -124 c 1
 82 -88 103 -59 111 -7 c 1
 73 -7 47 13 47 40 c 0
EndSplineSet
EndChar

StartChar: hyphen
Encoding: 45 45 27
Width: 330
Flags: MW
HStem: 246 52<62 273 62 273>
LayerCount: 2
Fore
SplineSet
273 298 m 1
 273 246 l 1
 62 246 l 1
 62 298 l 1
 273 298 l 1
EndSplineSet
EndChar

StartChar: period
Encoding: 46 46 21
Width: 191
Flags: MW
HStem: -7 93
VStem: 53 83
LayerCount: 2
Fore
SplineSet
52 44 m 0
 52 72 72 92 98 92 c 0
 123 92 142 72 142 44 c 0
 142 14 123 -7 98 -7 c 0
 72 -7 52 14 52 44 c 0
EndSplineSet
EndChar

StartChar: slash
Encoding: 47 47 73
Width: 338
Flags: MW
HStem: -266 21G 750 20G<260 314 314 314>
LayerCount: 2
Fore
SplineSet
260 770 m 1
 314 770 l 1
 83 0 l 1
 29 0 l 1
 260 770 l 1
EndSplineSet
EndChar

StartChar: zero
Encoding: 48 48 57
Width: 596
Flags: MW
HStem: -11 55 516 56
VStem: 34 56 453 55
LayerCount: 2
Fore
SplineSet
65 276 m 0
 65 499 188 568 302 568 c 0
 416 568 539 499 539 276 c 0
 539 53 416 -15 302 -15 c 0
 188 -15 65 53 65 276 c 0
484 276 m 0
 484 458 389 512 302 512 c 0
 215 512 120 458 120 276 c 0
 120 94 215 40 302 40 c 0
 389 40 484 94 484 276 c 0
EndSplineSet
Substitution2: "'lnum' Lining Figures in Latin lookup 1 subtable" zero.lnum
Substitution2: "'aalt' Access All Alternates in Latin lookup 0 subtable" zero.lnum
EndChar

StartChar: one
Encoding: 49 49 58
Width: 349
Flags: MW
HStem: 1 21G 540 20G<194 264 264 264>
VStem: 203 53
LayerCount: 2
Fore
SplineSet
264 0 m 1
 203 0 l 1
 203 503 l 1
 178 480 129 440 98 414 c 1
 60 458 l 1
 107 494 148 524 194 560 c 1
 264 560 l 1
 264 0 l 1
EndSplineSet
Substitution2: "'lnum' Lining Figures in Latin lookup 1 subtable" one.lnum
Substitution2: "'aalt' Access All Alternates in Latin lookup 0 subtable" one.lnum
EndChar

StartChar: two
Encoding: 50 50 59
Width: 522
Flags: MW
HStem: 0 54 510 62
VStem: 373 57
LayerCount: 2
Fore
SplineSet
253 518 m 0
 171 517 122 454 101 423 c 1
 86 438 65 458 65 458 c 1
 95 505 155 571 254 572 c 1
 363 572 434 510 434 396 c 0
 434 276 226 111 138 57 c 1
 469 57 l 1
 469 0 l 1
 55 0 l 1
 55 55 l 1
 120 102 378 300 378 401 c 1
 377 483 322 519 253 518 c 0
EndSplineSet
Substitution2: "'lnum' Lining Figures in Latin lookup 1 subtable" two.lnum
Substitution2: "'aalt' Access All Alternates in Latin lookup 0 subtable" two.lnum
EndChar

StartChar: three
Encoding: 51 51 60
Width: 529
Flags: MW
HStem: -221 63 509 63
VStem: 325 54 415 56
LayerCount: 2
Fore
SplineSet
92 450 m 1
 62 477 l 1
 62 477 121 571 226 571 c 0
 317 571 383 514 383 420 c 0
 383 359 336 297 280 266 c 1
 383 269 469 188 472 89 c 1
 472 -110 309 -209 194 -209 c 1
 120 -210 62 -171 43 -157 c 1
 80 -121 l 1
 80 -121 136 -159 194 -158 c 1
 290 -158 419 -78 419 80 c 0
 419 149 354 215 279 215 c 0
 223 215 174 202 150 195 c 1
 150 243 l 1
 246 281 329 342 329 428 c 0
 329 483 280 525 227 525 c 0
 148 525 109 471 92 450 c 1
EndSplineSet
Substitution2: "'lnum' Lining Figures in Latin lookup 1 subtable" three.lnum
Substitution2: "'aalt' Access All Alternates in Latin lookup 0 subtable" three.lnum
EndChar

StartChar: four
Encoding: 52 52 61
Width: 607
Flags: MW
HStem: -220 21G 0 54 540 20G
VStem: 414 52
LayerCount: 2
Fore
SplineSet
581 57 m 1
 581 0 l 1
 473 0 l 1
 473 -209 l 1
 413 -209 l 1
 413 0 l 1
 39 0 l 1
 39 36 l 1
 435 561 l 1
 473 561 l 1
 473 57 l 1
 581 57 l 1
117 57 m 1
 413 57 l 1
 413 456 l 1
 117 57 l 1
EndSplineSet
Substitution2: "'lnum' Lining Figures in Latin lookup 1 subtable" four.lnum
Substitution2: "'aalt' Access All Alternates in Latin lookup 0 subtable" four.lnum
EndChar

StartChar: five
Encoding: 53 53 62
Width: 582
Flags: MW
HStem: -221 63 208 93 246 55 502 58
VStem: 105 52 467 58
LayerCount: 2
Fore
SplineSet
156 503 m 1
 156 269 l 1
 183 291 236 304 286 304 c 0
 440 304 521 207 521 75 c 0
 521 -133 416 -209 274 -209 c 0
 167 -209 96 -150 77 -131 c 1
 90 -117 100 -103 110 -89 c 1
 110 -89 193 -160 274 -160 c 0
 388 -160 468 -103 468 81 c 0
 468 156 410 249 286 249 c 0
 237 249 187 249 151 213 c 1
 97 213 l 1
 97 560 l 1
 462 560 l 1
 462 503 l 1
 156 503 l 1
EndSplineSet
Substitution2: "'lnum' Lining Figures in Latin lookup 1 subtable" five.lnum
Substitution2: "'aalt' Access All Alternates in Latin lookup 0 subtable" five.lnum
EndChar

StartChar: six
Encoding: 54 54 63
Width: 594
Flags: MW
HStem: -7 55 411 55 727 58
VStem: 70 52 493 55
LayerCount: 2
Fore
SplineSet
338 453 m 0
 445 453 537 396 537 233 c 0
 537 142 484 -15 313 -15 c 0
 158 -15 69 113 69 343 c 0
 69 570 185 765 344 765 c 0
 433 765 477 726 502 707 c 1
 464 669 l 1
 464 669 409 714 341 714 c 0
 171 714 106 422 125 291 c 1
 194 429 282 453 338 453 c 0
313 33 m 0
 442 33 483 162 483 233 c 0
 483 357 415 397 338 397 c 0
 274 397 191 350 133 216 c 1
 155 99 218 33 313 33 c 0
EndSplineSet
Substitution2: "'lnum' Lining Figures in Latin lookup 1 subtable" six.lnum
Substitution2: "'aalt' Access All Alternates in Latin lookup 0 subtable" six.lnum
EndChar

StartChar: seven
Encoding: 55 55 64
Width: 492
Flags: MW
HStem: -220 21G 498 62
LayerCount: 2
Fore
SplineSet
51 496 m 1
 51 561 l 1
 464 561 l 1
 464 512 l 1
 384 344 143 -129 54 -191 c 1
 13 -152 l 1
 86 -95 297 293 395 496 c 1
 51 496 l 1
EndSplineSet
Substitution2: "'lnum' Lining Figures in Latin lookup 1 subtable" seven.lnum
Substitution2: "'aalt' Access All Alternates in Latin lookup 0 subtable" seven.lnum
EndChar

StartChar: eight
Encoding: 56 56 66
Width: 568
Flags: MW
HStem: 736 45
VStem: 60 56 429 56 449 57
LayerCount: 2
Fore
SplineSet
486 607 m 0xe0
 486 505 382 425 323 389 c 1
 416 323 506 249 506 158 c 0xd0
 506 -24 299 -15 287 -15 c 0
 276 -15 70 -22 70 158 c 1
 71 260 164 345 233 388 c 1
 154 452 90 524 90 607 c 0
 90 726 193 765 287 765 c 0
 380 765 486 726 486 607 c 0xe0
451 158 m 0
 451 223 365 293 269 363 c 1
 206 322 129 251 123 158 c 1
 123 32 278 36 287 36 c 0
 297 36 451 31 451 158 c 0
275 424 m 1
 282 418 l 1
 291 423 l 2
 332 445 431 512 431 607 c 0
 431 695 356 719 287 719 c 0
 219 719 143 695 143 607 c 0
 143 538 206 480 275 424 c 1
EndSplineSet
Substitution2: "'lnum' Lining Figures in Latin lookup 1 subtable" eight.lnum
Substitution2: "'aalt' Access All Alternates in Latin lookup 0 subtable" eight.lnum
EndChar

StartChar: nine
Encoding: 57 57 65
Width: 594
Flags: MW
HStem: -221 59 99 55 516 56
VStem: 67 55 493 52
LayerCount: 2
Fore
SplineSet
268 92 m 0
 161 92 69 149 69 312 c 0
 69 403 122 560 293 560 c 0
 448 560 537 432 537 202 c 0
 537 -25 421 -220 262 -220 c 0
 173 -220 129 -181 104 -162 c 1
 142 -124 l 1
 142 -124 197 -169 265 -169 c 0
 435 -169 500 123 481 254 c 1
 412 116 324 92 268 92 c 0
293 512 m 0
 164 512 123 383 123 312 c 0
 123 188 191 148 268 148 c 0
 332 148 415 195 473 329 c 1
 451 446 388 512 293 512 c 0
EndSplineSet
Substitution2: "'lnum' Lining Figures in Latin lookup 1 subtable" nine.lnum
Substitution2: "'aalt' Access All Alternates in Latin lookup 0 subtable" nine.lnum
EndChar

StartChar: colon
Encoding: 58 58 23
Width: 241
Flags: MW
HStem: -7 93 369 93
VStem: 81 83
LayerCount: 2
Fore
SplineSet
78 44 m 0
 78 72 97 92 124 92 c 0
 148 92 167 72 167 44 c 0
 167 14 148 -7 124 -7 c 0
 97 -7 78 14 78 44 c 0
78 414 m 0
 78 441 97 462 124 462 c 0
 148 462 167 441 167 414 c 0
 167 384 148 362 124 362 c 0
 97 362 78 384 78 414 c 0
EndSplineSet
EndChar

StartChar: semicolon
Encoding: 59 59 24
Width: 246
Flags: MW
HStem: -143 21G 369 93
VStem: 81 89
LayerCount: 2
Fore
SplineSet
83 40 m 0
 83 67 101 86 125 86 c 0
 158 86 172 53 172 12 c 0
 171 -39 147 -98 111 -147 c 1
 102 -142 95 -139 89 -134 c 1
 118 -98 138 -59 146 -7 c 1
 108 -7 83 13 83 40 c 0
78 414 m 0
 78 441 97 462 124 462 c 0
 148 462 167 441 167 414 c 0
 167 384 148 362 124 362 c 0
 97 362 78 384 78 414 c 0
EndSplineSet
EndChar

StartChar: less
Encoding: 60 60 89
Width: 684
Flags: MW
HStem: -7 21G 542 20G
LayerCount: 2
Fore
SplineSet
80 245 m 1
 80 309 l 1
 263 391 435 471 619 553 c 1
 619 503 l 1
 119 277 l 1
 619 51 l 1
 619 1 l 1
 432 85 266 162 80 245 c 1
EndSplineSet
EndChar

StartChar: equal
Encoding: 61 61 86
Width: 645
Flags: MW
HStem: 172 49<59 594 59 594> 337 48<59 594 59 594>
LayerCount: 2
Fore
SplineSet
594 385 m 1
 594 337 l 1
 59 337 l 1
 59 385 l 1
 594 385 l 1
594 221 m 1
 594 172 l 1
 59 172 l 1
 59 221 l 1
 594 221 l 1
EndSplineSet
EndChar

StartChar: greater
Encoding: 62 62 90
Width: 684
Flags: MW
HStem: -7 21G 542 20G
LayerCount: 2
Fore
SplineSet
614 309 m 1
 614 245 l 1
 430 163 258 83 75 1 c 1
 75 51 l 1
 574 277 l 1
 413 349 235 431 75 503 c 1
 75 553 l 1
 261 469 428 392 614 309 c 1
EndSplineSet
EndChar

StartChar: question
Encoding: 63 63 25
Width: 488
Flags: MW
HStem: -7 93<234.5 258> 770 51<209 321>
VStem: 166 48<275 306.5 275 323> 204 83<26.5 53.5> 398 56<647 669.5>
LayerCount: 2
Fore
SplineSet
398 647 m 1xe8
 398 692 386 770 256 770 c 0
 162 770 102 689 81 657 c 1
 48 689 l 1
 48 689 137 821 256 821 c 0
 426 821 454 710 454 647 c 0
 454 538 373 468 302 405 c 0
 253 361 214 322 214 291 c 0
 214 259 234 236 265 208 c 1
 249 195 238 186 225 176 c 1
 195 205 166 241 166 292 c 0
 166 354 210 399 268 452 c 0
 329 507 395 573 398 647 c 1xe8
204 40 m 0xd8
 204 67 223 86 246 86 c 0
 270 86 287 67 287 40 c 0
 287 13 270 -7 246 -7 c 0
 223 -7 204 13 204 40 c 0xd8
EndSplineSet
EndChar

StartChar: at
Encoding: 64 64 72
Width: 1046
Flags: MW
HStem: -202 61<436.5 605 436.5 613> 20 41 533 41 708 62<436.5 681.5>
VStem: 57 51<142 373.5 142 391> 294 51<159 298.5 159 311> 952 51<347 432.5>
LayerCount: 2
Fore
SplineSet
417 20 m 1
 330 21 294 93 294 201 c 0
 294 421 454 574 562 574 c 0
 608 574 657 557 718 465 c 1
 724 495 733 533 737 548 c 1
 758 543 771 542 788 538 c 1
 788 538 685 79 685 71 c 1
 695 61 963 98 952 347 c 1
 952 518 809 708 554 708 c 0
 319 708 108 489 108 258 c 0
 108 26 319 -141 554 -141 c 0
 656 -141 751 -120 884 -16 c 1
 919 -60 l 1
 759 -190 672 -202 554 -202 c 0
 290 -202 57 -7 57 258 c 0
 57 524 290 770 554 770 c 0
 842 770 1003 551 1003 347 c 0
 1003 76 761 20 687 20 c 0
 650 20 636 39 636 70 c 0
 636 77 640 100 646 137 c 1
 578 76 493 18 417 20 c 1
345 201 m 0
 345 117 366 69 417 67 c 1
 539 65 647 204 668 233 c 1
 707 408 l 1
 661 516 611 528 562 528 c 0
 475 528 345 396 345 201 c 0
EndSplineSet
EndChar

StartChar: A
Encoding: 65 65 30
Width: 694
Flags: MW
HStem: 1 21G 269 57<216 486 216 507 196 486> 750 20G<316 388 388 388>
LayerCount: 2
Fore
SplineSet
316 770 m 1
 388 770 l 1
 671 0 l 1
 607 0 l 1
 507 269 l 1
 196 269 l 1
 165 184 128 85 96 0 c 1
 32 0 l 1
 316 770 l 1
350 705 m 1
 350 705 334 643 216 326 c 1
 486 326 l 1
 371 635 350 705 350 705 c 1
EndSplineSet
EndChar

StartChar: B
Encoding: 66 66 31
Width: 621
Flags: MW
HStem: -41 20G -12 63 368 51 718 63
VStem: 121 60 505 55
LayerCount: 2
Fore
SplineSet
296 775 m 0
 429 775 519 722 530 563 c 1
 528 487 492 430 441 399 c 1
 545 354 565 269 565 223 c 0
 565 164 565 -3 309 0 c 1
 90 0 l 1
 90 758 l 1
 119 762 l 2
 166 768 227 775 296 775 c 0
150 360 m 1
 150 57 l 1
 309 57 l 2
 504 57 507 163 507 223 c 0
 507 260 487 360 322 360 c 2
 150 360 l 1
473 565 m 1
 472 677 413 709 338 717 c 0
 323 718 308 719 294 719 c 0
 247 719 195 713 150 706 c 1
 150 418 l 1
 240 418 l 2
 369 418 467 429 473 565 c 1
EndSplineSet
EndChar

StartChar: C
Encoding: 67 67 34
Width: 628
Flags: MW
HStem: -12 65 715 65
VStem: 69 61
LayerCount: 2
Fore
SplineSet
580 689 m 1
 540 650 l 1
 540 650 463 720 368 720 c 0
 248 720 126 602 126 362 c 0
 126 184 237 48 368 45 c 0
 483 42 549 103 572 127 c 1
 609 91 l 1
 564 46 491 -14 363 -15 c 1
 194 -6 64 149 64 362 c 0
 64 640 213 785 369 785 c 0
 505 785 566 709 580 689 c 1
EndSplineSet
EndChar

StartChar: D
Encoding: 68 68 29
Width: 698
Flags: MW
HStem: -41 20G -12 67 713 67
VStem: 90 59<57 707 57 759 57 759> 604 60
LayerCount: 2
Fore
SplineSet
90 0 m 1
 90 759 l 1
 181 770 228 775 287 775 c 0
 469 775 643 717 643 380 c 0
 643 138 517 0 336 0 c 2
 90 0 l 1
584 380 m 0
 584 580 521 719 289 719 c 0
 247 719 164 707 149 707 c 1
 149 57 l 1
 336 57 l 2
 478 57 584 179 584 380 c 0
EndSplineSet
EndChar

StartChar: E
Encoding: 69 69 36
Width: 546
Flags: MW
HStem: 0 68 370 57 702 68 755 20G
VStem: 90 59
LayerCount: 2
Fore
SplineSet
508 0 m 1xd8
 91 0 l 1
 91 770 l 1
 402 770 l 2xe8
 442 770 476 772 494 773 c 1
 494 714 l 1
 150 714 l 1
 150 428 l 1
 443 428 l 1
 443 371 l 1
 150 371 l 1
 150 57 l 1
 416 57 l 2
 456 57 490 60 508 61 c 1
 508 0 l 1xd8
EndSplineSet
EndChar

StartChar: F
Encoding: 70 70 37
Width: 524
Flags: MW
HStem: 1 21G 370 57 702 68 755 20G
VStem: 91 59<0 371 428 715>
LayerCount: 2
Fore
SplineSet
150 0 m 1xd8
 91 0 l 1
 91 770 l 1
 402 770 l 2xe8
 442 770 476 772 494 773 c 1
 494 715 l 1
 150 715 l 1
 150 428 l 1
 443 428 l 1
 443 371 l 1
 150 371 l 1
 150 0 l 1xd8
EndSplineSet
EndChar

StartChar: G
Encoding: 71 71 32
Width: 734
Flags: MW
HStem: -12 67 313 68 719 61
VStem: 66 63 601 49
LayerCount: 2
Fore
SplineSet
653 368 m 1
 653 141 l 2
 653 53 534 -13 421 -15 c 1
 131 -15 64 208 64 368 c 0
 64 681 267 785 416 785 c 0
 542 785 623 702 645 676 c 1
 604 636 l 1
 604 636 514 728 420 728 c 0
 303 728 127 628 127 368 c 0
 127 238 180 46 417 46 c 0
 483 46 598 97 598 150 c 2
 598 308 l 1
 482 308 l 2
 463 308 434 308 412 316 c 1
 412 371 l 1
 438 368 466 368 486 368 c 2
 653 368 l 1
EndSplineSet
EndChar

StartChar: H
Encoding: 72 72 38
Width: 726
Flags: MW
HStem: 1 21G 370 57<149 587 149 587> 750 20G<90 149 149 149 587 646 646 646>
VStem: 90 59<0 370 427 770> 587 59<0 370 370 370 427 770 0 770>
LayerCount: 2
Fore
SplineSet
149 0 m 1
 90 0 l 1
 90 770 l 1
 149 770 l 1
 149 427 l 1
 587 427 l 1
 587 770 l 1
 646 770 l 1
 646 0 l 1
 587 0 l 1
 587 370 l 1
 149 370 l 1
 149 0 l 1
EndSplineSet
EndChar

StartChar: I
Encoding: 73 73 39
Width: 242
Flags: MW
HStem: 1 21G 750 20G<93 152 152 152>
VStem: 93 59<0 770>
LayerCount: 2
Fore
SplineSet
152 0 m 1
 93 0 l 1
 93 770 l 1
 152 770 l 1
 152 0 l 1
EndSplineSet
EndChar

StartChar: J
Encoding: 74 74 40
Width: 270
Flags: MW
HStem: -265 21G 750 20G<123 183 183 183>
VStem: 123 60<-28 770>
LayerCount: 2
Fore
SplineSet
123 770 m 1
 183 770 l 1
 183 -28 l 2
 183 -177 89 -236 24 -261 c 1
 14 -237 6 -223 -2 -201 c 1
 61 -179 123 -126 123 -28 c 2
 123 770 l 1
EndSplineSet
EndChar

StartChar: K
Encoding: 75 75 42
Width: 598
Flags: MW
HStem: 1 21G 750 20G<90 150 150 150 447 525 525 525>
VStem: 90 60<0 302 388 770>
LayerCount: 2
Fore
SplineSet
90 770 m 1
 150 770 l 1
 150 388 l 1
 447 770 l 1
 525 770 l 1
 237 402 l 1
 271 398 321 382 352 346 c 0
 371 324 415 254 459 182 c 0
 499 117 545 43 577 0 c 1
 504 0 l 1
 487 20 439 101 398 168 c 0
 364 224 332 278 317 298 c 1
 286 334 247 351 204 351 c 0
 191 351 155 314 150 302 c 1
 150 0 l 1
 90 0 l 1
 90 770 l 1
EndSplineSet
EndChar

StartChar: L
Encoding: 76 76 43
Width: 541
Flags: MW
HStem: 0 68 750 20G<91 150 150 150>
VStem: 91 59<57 770 57 770 57 770>
LayerCount: 2
Fore
SplineSet
91 0 m 1
 91 770 l 1
 150 770 l 1
 150 57 l 1
 416 57 l 2
 456 57 490 60 508 61 c 1
 508 0 l 1
 91 0 l 1
EndSplineSet
EndChar

StartChar: M
Encoding: 77 77 44
Width: 835
Flags: MW
HStem: 1 21G 750 20G<89 152 152 152 695 757 757 757>
VStem: 89 60<0 544 544 628> 698 59<0 544 544 628 628 628>
LayerCount: 2
Fore
SplineSet
149 0 m 1
 89 0 l 1
 89 770 l 1
 152 770 l 1
 406 102 l 1
 422 53 l 1
 439 102 l 1
 695 770 l 1
 757 770 l 1
 757 0 l 1
 698 0 l 1
 698 544 l 1
 698 628 l 1
 454 0 l 1
 392 0 l 1
 149 628 l 1
 149 544 l 1
 149 0 l 1
EndSplineSet
EndChar

StartChar: N
Encoding: 78 78 45
Width: 708
Flags: MW
HStem: 1 21G 750 20G<90 155 155 155 568 628 628 628>
VStem: 90 59<0 614 614 678> 568 60<97 158 158 770 0 770>
LayerCount: 2
Fore
SplineSet
149 0 m 1
 90 0 l 1
 90 770 l 1
 155 770 l 1
 568 97 l 1
 568 158 l 1
 568 770 l 1
 628 770 l 1
 628 0 l 1
 563 0 l 1
 184 619 l 1
 149 678 l 1
 149 614 l 1
 149 0 l 1
EndSplineSet
EndChar

StartChar: P
Encoding: 80 80 48
Width: 603
Flags: MW
HStem: 1 21G 237 58 717 63
VStem: 136 60 546 56
LayerCount: 2
Fore
SplineSet
150 0 m 1
 90 0 l 1
 90 770 l 1
 150 770 l 1
 150 726 l 1
 210 762 278 785 334 785 c 0
 465 785 556 683 556 536 c 0
 556 346 471 246 326 246 c 0
 262 246 203 277 150 314 c 1
 150 0 l 1
500 536 m 0
 500 648 426 727 304 727 c 0
 250 727 199 705 150 668 c 1
 150 382 l 1
 202 336 264 308 331 308 c 0
 431 308 500 382 500 536 c 0
EndSplineSet
EndChar

StartChar: Q
Encoding: 81 81 47
Width: 741
Flags: MW
HStem: -136 64 -136 187 717 63
VStem: 65 60 631 59
LayerCount: 2
Fore
SplineSet
378 785 m 0
 522 785 686 695 687 386 c 0
 687 102 550 3 402 -15 c 1
 426 -44 464 -83 536 -83 c 0
 561 -83 592 -79 621 -71 c 1
 628 -92 633 -106 639 -125 c 1
 609 -133 561 -138 536 -138 c 0
 412 -136 352 -56 335 -12 c 1
 199 6 64 106 64 384 c 0
 64 697 231 785 378 785 c 0
378 729 m 0
 264 729 123 646 123 386 c 0
 123 122 264 42 375 42 c 0
 495 42 627 121 628 384 c 0
 628 642 495 729 378 729 c 0
EndSplineSet
EndChar

StartChar: R
Encoding: 82 82 49
Width: 639
Flags: MW
HStem: 1 21G 326 54 717 63
VStem: 90 59<0 331 387 667 726 770> 484 56
LayerCount: 2
Fore
SplineSet
149 0 m 1
 90 0 l 1
 90 770 l 1
 149 770 l 1
 149 726 l 1
 219 770 277 784 338 785 c 1
 457 785 532 699 542 569 c 1
 539 418 445 352 353 333 c 1
 407 288 451 223 493 161 c 0
 532 102 570 43 617 2 c 1
 583 2 577 0 545 0 c 1
 513 27 476 81 438 138 c 0
 381 221 322 309 252 331 c 1
 149 331 l 1
 149 0 l 1
317 387 m 1
 390 388 483 423 484 570 c 0
 484 663 423 725 324 725 c 0
 260 725 207 706 149 667 c 1
 149 387 l 1
 317 387 l 1
EndSplineSet
EndChar

StartChar: S
Encoding: 83 83 50
Width: 604
Flags: MW
HStem: -11 61 720 61
VStem: 81 56 510 56
LayerCount: 2
Fore
SplineSet
62 129 m 1
 104 166 l 1
 157 88 224 43 320 41 c 1
 417 41 500 98 500 203 c 0
 500 304 406 342 308 372 c 0
 197 405 87 445 89 577 c 0
 93 756 234 785 302 785 c 0
 392 785 455 755 504 699 c 1
 487 685 478 676 462 662 c 1
 423 700 378 729 302 729 c 0
 251 729 152 704 147 577 c 0
 144 495 234 455 325 427 c 0
 436 392 558 346 558 203 c 0
 558 56 444 -15 318 -15 c 1
 203 -12 125 31 62 129 c 1
EndSplineSet
EndChar

StartChar: T
Encoding: 84 84 46
Width: 542
Flags: MW
HStem: 1 21G 713 57<12 538 12 243 302 302 302 538>
VStem: 243 59<0 713 0 713>
LayerCount: 2
Fore
SplineSet
12 713 m 1
 12 770 l 1
 538 770 l 1
 538 713 l 1
 302 713 l 1
 302 0 l 1
 243 0 l 1
 243 713 l 1
 12 713 l 1
EndSplineSet
EndChar

StartChar: V
Encoding: 86 86 53
Width: 670
Flags: MW
HStem: 1 21G 750 20G<30 94 94 94 585 650 650 650>
LayerCount: 2
Fore
SplineSet
374 0 m 1
 305 0 l 1
 212 261 122 509 30 770 c 1
 94 770 l 1
 170 553 246 331 340 69 c 1
 585 770 l 1
 650 770 l 1
 374 0 l 1
EndSplineSet
EndChar

StartChar: X
Encoding: 88 88 55
Width: 641
Flags: MW
HStem: 1 21G 750 20G<41 116 116 116 532 609 609 609>
LayerCount: 2
Fore
SplineSet
532 770 m 1
 609 770 l 1
 363 384 l 1
 443 258 529 127 609 0 c 1
 531 0 l 1
 324 322 l 1
 120 0 l 1
 41 0 l 1
 285 384 l 1
 41 770 l 1
 116 770 l 1
 324 446 l 1
 532 770 l 1
EndSplineSet
EndChar

StartChar: Y
Encoding: 89 89 56
Width: 601
Flags: MW
HStem: 1 21G 750 20G<22 94 94 94 520 588 588 588>
VStem: 276 59<0 371 0 371>
LayerCount: 2
Fore
SplineSet
520 770 m 1
 588 770 l 1
 335 371 l 1
 335 0 l 1
 276 0 l 1
 276 371 l 1
 22 770 l 1
 94 770 l 1
 306 437 l 1
 520 770 l 1
EndSplineSet
EndChar

StartChar: Z
Encoding: 90 90 28
Width: 597
Flags: MW
HStem: 0 64<125 445> 706 64<65 458 65 529>
LayerCount: 2
Fore
SplineSet
551 75 m 1
 551 10 l 1
 522 -5 445 0 445 0 c 1
 55 0 l 1
 55 72 l 1
 458 706 l 1
 65 706 l 1
 65 770 l 1
 529 770 l 1
 529 700 l 1
 125 64 l 1
 447 64 l 1
 447 64 503 63 551 75 c 1
EndSplineSet
EndChar

StartChar: bracketleft
Encoding: 91 91 87
Width: 343
Flags: MW
HStem: -267 41<148 271 148 271> 729 41<148 271 148 148>
VStem: 92 56<-226 729 -226 770 -226 770> 92 179<-267 -226 729 770>
LayerCount: 2
Fore
SplineSet
271 770 m 1xe0
 271 729 l 1xd0
 148 729 l 1
 148 -226 l 1xe0
 271 -226 l 1
 271 -267 l 1xd0
 92 -267 l 1
 92 770 l 1
 271 770 l 1xe0
EndSplineSet
EndChar

StartChar: backslash
Encoding: 92 92 76
Width: 348
Flags: MW
HStem: -266 21G 750 20G<34 88 88 88>
LayerCount: 2
Fore
SplineSet
34 770 m 1
 88 770 l 1
 319 0 l 1
 265 0 l 1
 34 770 l 1
EndSplineSet
EndChar

StartChar: bracketright
Encoding: 93 93 84
Width: 343
Flags: MW
HStem: -267 41<77 200 77 200 77 256> 729 41<77 200 77 256>
VStem: 77 179<-267 -226 -226 -226 729 770 -267 770> 200 56<-226 729 729 729>
LayerCount: 2
Fore
SplineSet
77 -267 m 1xe0
 77 -226 l 1xe0
 200 -226 l 1
 200 729 l 1xd0
 77 729 l 1
 77 770 l 1
 256 770 l 1
 256 -267 l 1
 77 -267 l 1xe0
EndSplineSet
EndChar

StartChar: asciicircum
Encoding: 94 94 35
Width: 638
Flags: MW
HStem: 1 21G 524 20G<298 349 349 349>
LayerCount: 2
Fore
SplineSet
298 544 m 1
 349 544 l 1
 597 0 l 1
 545 0 l 1
 323 501 l 1
 100 0 l 1
 49 0 l 1
 133 187 213 357 298 544 c 1
EndSplineSet
EndChar

StartChar: underscore
Encoding: 95 95 33
Width: 645
Flags: MW
HStem: -66 45<59 594 59 594>
LayerCount: 2
Fore
SplineSet
594 -21 m 1
 594 -66 l 1
 59 -66 l 1
 59 -21 l 1
 594 -21 l 1
EndSplineSet
EndChar

StartChar: grave
Encoding: 96 96 68
Width: 329
Flags: MW
HStem: 628 21G 750 20G
LayerCount: 2
Fore
SplineSet
78 756 m 1
 144 756 l 1
 261 626 l 1
 225 626 l 1
 78 756 l 1
EndSplineSet
EndChar

StartChar: b
Encoding: 98 98 95
Width: 610
Flags: MW
HStem: -41 20G -12 64 498 64 810 20G
VStem: 90 56 507 56<211 339>
LayerCount: 2
Fore
SplineSet
353 562 m 0
 497 562 563 430 563 284 c 0
 563 97 478 -12 339 -12 c 0
 290 -12 217 15 145 74 c 1
 145 0 l 1
 90 0 l 1
 90 820 l 1
 145 820 l 1
 145 450 l 1
 180 511 267 562 353 562 c 0
353 501 m 0
 245 502 181 438 145 382 c 1
 145 143 l 1
 200 88 281 46 339 46 c 0
 440 46 507 138 507 284 c 0
 507 394 455 500 353 501 c 0
EndSplineSet
EndChar

StartChar: c
Encoding: 99 99 96
Width: 494
Flags: MW
HStem: -12 62 500 62
VStem: 60 56<205 346.5 205 368.5>
LayerCount: 2
Fore
SplineSet
289 562 m 0
 381 562 434 499 447 483 c 1
 413 449 l 1
 413 449 363 509 287 509 c 0
 208 509 116 428 116 265 c 0
 116 145 181 40 282 40 c 0
 321 40 366 55 421 103 c 1
 436 88 443 80 456 67 c 1
 382 -5 328 -12 282 -12 c 0
 148 -12 60 109 60 265 c 0
 60 472 185 562 289 562 c 0
EndSplineSet
EndChar

StartChar: d
Encoding: 100 100 20
Width: 625
Flags: MW
HStem: -12 64 498 64<234 310.5 215.5 314.5> 810 20G
VStem: 61 56 478 56<208 396 396 396 464 820>
LayerCount: 2
Fore
SplineSet
250 -8 m 0
 133 -7 58 120 58 266 c 0
 58 453 146 562 285 562 c 0
 336 562 422 526 478 464 c 1
 478 820 l 1
 534 820 l 1
 534 127 l 2
 534 122 533 57 588 27 c 1
 572 10 562 2 548 -11 c 1
 497 12 485 79 479 118 c 1
 412 44 333 -9 250 -8 c 0
249 55 m 0
 370 47 442 152 478 208 c 1
 478 396 l 1
 417 457 344 498 285 498 c 0
 183 498 117 412 117 266 c 0
 117 156 167 61 249 55 c 0
EndSplineSet
EndChar

StartChar: e
Encoding: 101 101 198
Width: 563
Flags: MW
HStem: -12 56 290 56<123 448 123 503 114 448> 506 56
VStem: 58 56
LayerCount: 2
Fore
SplineSet
59 269 m 0
 59 430 149 562 289 562 c 0
 487 562 503 358 503 320 c 2
 503 290 l 1
 114 290 l 1
 109 142 172 42 293 42 c 0
 325 42 392 37 471 134 c 1
 484 122 496 109 504 101 c 1
 407 -16 331 -12 293 -12 c 0
 137 -12 59 117 59 269 c 0
289 508 m 0
 202 508 149 437 123 346 c 1
 448 346 l 1
 438 412 398 508 289 508 c 0
EndSplineSet
EndChar

StartChar: f
Encoding: 102 102 199
Width: 379
Flags: MW
HStem: 1 21G 498 52<37 111 37 111 166 334> 783 52
VStem: 111 55<0 498 0 498 550 650>
LayerCount: 2
Fore
SplineSet
166 650 m 1
 166 550 l 1
 334 550 l 1
 334 498 l 1
 166 498 l 1
 166 0 l 1
 111 0 l 1
 111 498 l 1
 37 498 l 1
 37 550 l 1
 111 550 l 1
 111 650 l 2
 111 751 148 825 256 825 c 0
 319 825 392 784 417 768 c 1
 381 732 l 1
 381 732 303 773 256 773 c 0
 172 773 167 720 166 650 c 1
EndSplineSet
EndChar

StartChar: g
Encoding: 103 103 197
Width: 599
Flags: MW
HStem: -285 57 42 56<255 293 290.5 293 290.5 293> 204 46<284 322 264 332.5> 519 46<264 302 253.5 322> 560 56<503.5 525.5>
VStem: 64 57 86 56 445 56 518 52
LayerCount: 2
Fore
SplineSet
138 392 m 0xf380
 138 265 235 250 293 250 c 0
 351 250 447 275 447 392 c 0
 447 485 351 519 293 519 c 0
 235 519 138 485 138 392 c 0xf380
98 116 m 0
 98 149 133 189 178 225 c 1
 127 254 83 304 83 392 c 0
 83 515 214 565 293 565 c 0xf380
 311 565 337 560 367 553 c 1
 411 593 468 616 519 616 c 0
 532 616 549 614 565 610 c 1
 562 592 557 575 554 558 c 1
 542 560 532 560 519 560 c 0
 488 560 450 551 411 535 c 1
 462 503 502 457 502 392 c 0
 502 236 372 204 293 204 c 0
 275 204 254 205 227 211 c 1
 187 183 154 146 154 113 c 1
 169 99 231 100 270 99 c 0
 280 99 288 98 293 98 c 0
 423 91 573 67 573 -62 c 0
 573 -183 487 -285 297 -285 c 0
 175 -285 64 -207 64 -112 c 1xed80
 65 -25 104 11 159 51 c 1
 126 65 98 85 98 116 c 0
297 -230 m 0
 448 -230 518 -152 518 -62 c 0
 518 22 395 36 293 42 c 1
 262 42 l 2
 248 42 228 43 212 43 c 1
 158 9 118 -19 118 -112 c 0
 118 -178 211 -230 297 -230 c 0
EndSplineSet
EndChar

StartChar: h
Encoding: 104 104 1
Width: 590
Flags: MW
HStem: 1 21G 496 66 810 20G
VStem: 90 56<0 353 418 820> 471 56<0 395 0 426.5>
LayerCount: 2
Fore
SplineSet
146 0 m 1
 90 0 l 1
 90 820 l 1
 146 820 l 1
 146 418 l 1
 199 491 322 562 411 562 c 0
 494 562 527 499 527 395 c 2
 527 0 l 1
 471 0 l 1
 471 395 l 2
 471 458 454 505 411 505 c 0
 294 505 196 405 146 353 c 1
 146 0 l 1
EndSplineSet
EndChar

StartChar: i
Encoding: 105 105 2
Width: 257
Flags: MW
HStem: 1 21G 694 84
VStem: 104 55<0 550 0 550>
LayerCount: 2
Fore
SplineSet
104 550 m 1
 159 550 l 1
 159 0 l 1
 104 0 l 1
 104 550 l 1
93 732 m 0
 93 756 110 771 132 771 c 0
 152 771 169 756 169 732 c 0
 169 707 152 691 132 691 c 0
 110 691 93 707 93 732 c 0
EndSplineSet
EndChar

StartChar: j
Encoding: 106 106 3
Width: 206
Flags: MW
HStem: -285 21G 571 102 694 84
VStem: 52 55<-55 550>
LayerCount: 2
Fore
SplineSet
52 550 m 1
 107 550 l 1
 107 -55 l 2
 107 -173 47 -253 -9 -280 c 1
 -28 -220 l 1
 14 -201 52 -132 52 -55 c 2
 52 550 l 1
42 732 m 0
 42 756 58 771 80 771 c 0
 101 771 118 756 118 732 c 0
 118 707 101 691 80 691 c 0
 58 691 42 707 42 732 c 0
EndSplineSet
EndChar

StartChar: k
Encoding: 107 107 4
Width: 539
Flags: MW
HStem: 1 21G 810 20G
VStem: 89 56<0 255 340 820>
LayerCount: 2
Fore
SplineSet
287 280 m 1
 345 213 485 56 547 0 c 1
 465 0 l 1
 448 9 373 93 313 164 c 1
 247 239 l 1
 225 262 211 274 190 279 c 0
 179 281 154 264 145 255 c 1
 145 0 l 1
 89 0 l 1
 89 820 l 1
 145 820 l 1
 145 340 l 1
 184 357 340 470 395 550 c 1
 456 550 l 1
 433 486 303 378 219 326 c 1
 244 317 268 300 287 280 c 1
547 0 m 1
 547 0 l 1
EndSplineSet
EndChar

StartChar: l
Encoding: 108 108 5
Width: 264
Flags: MW
HStem: -12 21G 810 20G
VStem: 93 55<141 820>
LayerCount: 2
Fore
SplineSet
93 820 m 1
 148 820 l 1
 148 141 l 2
 148 116 148 83 165 65 c 1
 180 51 201 43 227 40 c 1
 226 20 226 6 225 -12 c 1
 194 -11 150 -5 125 20 c 0
 93 52 93 104 93 141 c 2
 93 820 l 1
EndSplineSet
EndChar

StartChar: m
Encoding: 109 109 6
Width: 893
Flags: MW
HStem: 1 21G 496 54 496 66
VStem: 87 56<0 354 425 550> 435 56<0 354 0 395 0 426.5> 782 56<0 395 0 426.5>
LayerCount: 2
Fore
SplineSet
143 0 m 1xbc
 87 0 l 1
 87 550 l 1
 143 550 l 1xdc
 143 425 l 1
 209 498 291 562 374 562 c 0
 444 562 479 523 492 426 c 1
 556 498 638 562 722 562 c 0
 805 562 838 499 838 395 c 2
 838 0 l 1
 782 0 l 1
 782 395 l 2
 782 458 766 502 722 502 c 0
 608 502 534 407 491 354 c 1
 491 0 l 1
 435 0 l 1
 435 395 l 2
 435 458 418 502 374 502 c 0
 268 502 187 407 143 354 c 1
 143 0 l 1xbc
EndSplineSet
EndChar

StartChar: p
Encoding: 112 112 9
Width: 608
Flags: MW
HStem: -269 21G -12 64 498 64
VStem: 88 56 505 56<211 339>
LayerCount: 2
Fore
SplineSet
144 -270 m 1
 90 -270 l 1
 90 550 l 1
 144 550 l 1
 144 428 l 1
 188 504 285 563 371 562 c 0
 488 561 561 430 561 284 c 0
 561 97 476 -12 337 -12 c 0
 289 -12 200 29 144 84 c 1
 144 -270 l 1
371 504 m 0
 254 505 179 410 144 355 c 1
 144 152 l 1
 199 97 278 43 338 43 c 0
 439 43 505 138 505 284 c 0
 505 394 453 503 371 504 c 0
EndSplineSet
EndChar

StartChar: q
Encoding: 113 113 10
Width: 610
Flags: MW
HStem: -269 21G -12 64 498 64
VStem: 59 56<211 339 211 359.5> 476 56<-270 129 129 129 209 405 405 405 478 550 -270 550>
LayerCount: 2
Fore
SplineSet
249 -12 m 0
 132 -11 59 120 59 266 c 0
 59 453 144 562 283 562 c 0
 331 562 404 537 476 478 c 1
 476 550 l 1
 532 550 l 1
 532 -270 l 1
 476 -270 l 1
 476 129 l 1
 420 52 334 -13 249 -12 c 0
249 43 m 0
 366 41 441 153 476 209 c 1
 476 405 l 1
 420 459 342 506 283 506 c 0
 181 506 115 412 115 266 c 0
 115 156 167 44 249 43 c 0
EndSplineSet
EndChar

StartChar: r
Encoding: 114 114 11
Width: 422
Flags: MW
HStem: 1 21G 500 50 500 62
VStem: 91 56<0 355 447 550>
LayerCount: 2
Fore
SplineSet
91 550 m 1xd0
 147 550 l 1xd0
 147 447 l 1
 191 527 255 562 307 562 c 0xb0
 372 562 411 529 426 516 c 1
 386 475 l 1
 386 475 346 511 311 511 c 0
 234 511 170 408 147 355 c 1
 147 0 l 1
 91 0 l 1
 91 550 l 1xd0
EndSplineSet
EndChar

StartChar: s
Encoding: 115 115 12
Width: 488
Flags: MW
HStem: -12 51 511 51
VStem: 83 52 388 52
LayerCount: 2
Fore
SplineSet
135 415 m 0
 135 355 198 330 264 309 c 1
 352 283 443 256 443 146 c 0
 443 38 349 -12 257 -12 c 0
 181 -12 99 21 52 91 c 1
 66 103 77 113 89 123 c 1
 125 73 185 34 259 34 c 0
 325 34 388 69 388 141 c 0
 388 213 314 241 248 261 c 0
 166 285 80 317 80 410 c 0
 80 540 196 562 246 562 c 0
 312 562 368 542 407 506 c 1
 370 470 l 1
 340 498 306 516 246 516 c 0
 210 516 135 501 135 415 c 0
EndSplineSet
EndChar

StartChar: t
Encoding: 116 116 13
Width: 384
Flags: MW
HStem: -12 51 498 52 686 20G
VStem: 123 56<156 500 552 750>
LayerCount: 2
Fore
SplineSet
50 500 m 1
 50 552 l 1
 123 552 l 1
 123 750 l 1
 179 750 l 1
 179 552 l 1
 316 552 l 1
 316 500 l 1
 179 500 l 1
 179 156 l 2
 179 113 179 43 248 43 c 0
 284 43 309 54 335 77 c 1
 350 62 356 55 369 43 c 1
 329 7 279 -12 226 -12 c 0
 150 -12 123 54 123 156 c 2
 123 500 l 1
 50 500 l 1
EndSplineSet
EndChar

StartChar: u
Encoding: 117 117 14
Width: 590
Flags: MW
HStem: -41 20G -12 66 530 20G<75 131 131 131 455 512 512 512>
VStem: 75 56<155 550> 455 57<0 119 119 119 201 550 0 550>
LayerCount: 2
Fore
SplineSet
191 46 m 0
 301 46 397 141 455 201 c 1
 455 550 l 1
 512 550 l 1
 512 0 l 1
 455 0 l 1
 455 119 l 1
 387 48 278 -12 191 -12 c 0
 108 -12 75 51 75 155 c 2
 75 550 l 1
 131 550 l 1
 131 155 l 2
 131 92 147 46 191 46 c 0
EndSplineSet
EndChar

StartChar: v
Encoding: 118 118 15
Width: 508
Flags: MW
HStem: 1 21G 530 20G<23 92 92 92 430 491 491 491>
LayerCount: 2
Fore
SplineSet
23 550 m 1
 92 550 l 1
 141 404 189 263 257 64 c 1
 310 302 402 499 430 550 c 1
 491 550 l 1
 375 342 289 0 289 0 c 1
 268 0 250 0 232 0 c 1
 161 186 94 365 23 550 c 1
EndSplineSet
EndChar

StartChar: w
Encoding: 119 119 16
Width: 763
Flags: MW
HStem: 1 21G 530 20G<30 91 91 91 356 412 412 412 689 744 744 744>
LayerCount: 2
Fore
SplineSet
246 0 m 1
 189 0 l 1
 30 550 l 1
 91 550 l 1
 221 68 l 1
 356 550 l 1
 412 550 l 1
 549 68 l 1
 606 279 672 520 689 550 c 1
 744 550 l 1
 716 522 578 0 578 0 c 1
 557 0 541 0 524 0 c 1
 384 484 l 1
 344 339 288 145 246 0 c 1
EndSplineSet
EndChar

StartChar: x
Encoding: 120 120 17
Width: 568
Flags: MW
HStem: 1 21G 530 20G<67 143 143 143 456 527 527 527>
LayerCount: 2
Fore
SplineSet
67 550 m 1
 143 550 l 1
 295 329 l 1
 345 403 439 532 456 550 c 1
 527 550 l 1
 478 496 370 343 327 282 c 1
 527 0 l 1
 450 0 l 1
 293 236 l 1
 223 132 135 11 123 0 c 1
 51 0 l 1
 105 62 230 236 261 281 c 1
 199 367 130 463 67 550 c 1
EndSplineSet
EndChar

StartChar: z
Encoding: 122 122 19
Width: 502
Flags: MW
HStem: 0 53<119 407> 498 52<54 385 54 450>
LayerCount: 2
Fore
SplineSet
467 60 m 1
 467 10 l 1
 454 -5 407 0 407 0 c 1
 54 0 l 1
 54 61 l 1
 385 498 l 1
 54 498 l 1
 54 550 l 1
 450 550 l 1
 450 490 l 1
 119 53 l 1
 409 53 l 1
 409 53 442 52 467 60 c 1
EndSplineSet
EndChar

StartChar: braceleft
Encoding: 123 123 52
Width: 454
Flags: MW
HStem: -273 66<263 299.5 263 303.5> 264 31<86 136> 766 66<263 298.5>
VStem: 185 55<-127 179 179 179 380 686>
CounterMasks: 1 e0
LayerCount: 2
Fore
SplineSet
280 832 m 0
 325 832 366 814 383 805 c 1
 376 785 369 771 361 754 c 1
 361 754 317 766 280 766 c 0
 246 766 240 713 240 686 c 2
 240 379 l 2
 240 376 236 319 166 279 c 1
 239 239 240 184 240 180 c 2
 240 -127 l 2
 240 -154 246 -207 280 -207 c 0
 319 -207 346 -201 361 -195 c 1
 370 -216 376 -228 383 -246 c 1
 383 -246 327 -273 280 -273 c 0
 199 -273 185 -177 185 -127 c 2
 185 179 l 1
 185 179 188 258 86 264 c 1
 86 295 l 1
 186 295 185 380 185 380 c 1
 185 686 l 2
 185 735 199 832 280 832 c 0
EndSplineSet
EndChar

StartChar: bar
Encoding: 124 124 71
Width: 230
Flags: MW
HStem: -266 21G 812 20G<93 140 140 140>
VStem: 93 47<-267 832>
LayerCount: 2
Fore
SplineSet
140 -267 m 1
 93 -267 l 1
 93 832 l 1
 140 832 l 1
 140 -267 l 1
EndSplineSet
EndChar

StartChar: braceright
Encoding: 125 125 70
Width: 454
Flags: MW
HStem: -273 66<161.5 196.5 161.5 220.5> 264 31<374 374> 766 66<160.5 196.5>
VStem: 220 55<-127 179 179 179 380 686>
CounterMasks: 1 e0
LayerCount: 2
Fore
SplineSet
180 766 m 0
 141 766 114 760 99 754 c 1
 91 774 84 786 77 805 c 1
 77 805 134 832 180 832 c 0
 261 832 275 735 275 686 c 2
 275 380 l 1
 275 380 271 301 374 295 c 1
 374 264 l 1
 274 259 275 186 275 180 c 2
 275 -127 l 2
 275 -177 261 -273 180 -273 c 0
 136 -273 95 -256 77 -246 c 1
 84 -227 92 -213 99 -195 c 1
 99 -195 143 -207 180 -207 c 0
 213 -207 220 -154 220 -127 c 2
 220 179 l 1
 220 179 221 237 293 279 c 1
 221 319 220 375 220 379 c 2
 220 686 l 2
 220 713 213 766 180 766 c 0
EndSplineSet
EndChar

StartChar: asciitilde
Encoding: 126 126 81
Width: 636
Flags: MW
HStem: 268 41 331 41
LayerCount: 2
Fore
SplineSet
85 311 m 1
 62 347 l 1
 62 347 120 384 191 391 c 0
 224 395 270 385 316 373 c 1
 359 363 414 351 456 356 c 0
 512 363 544 377 562 386 c 1
 583 348 l 1
 583 348 526 313 460 307 c 1
 418 302 366 313 314 325 c 1
 315 325 l 1
 273 336 230 344 195 341 c 0
 131 334 102 320 85 311 c 1
EndSplineSet
EndChar

StartChar: exclamdown
Encoding: 161 161 100
Width: 278
Flags: MW
HStem: -269 0<106 106 177 177> 466 94
VStem: 101 83 117 51
LayerCount: 2
Fore
SplineSet
119 363 m 1
 164 363 l 1
 177 -269 l 1
 106 -269 l 1
 119 363 l 1
189 505 m 0
 189 475 168 453 140 453 c 0
 113 453 93 475 93 505 c 0
 93 536 113 560 140 560 c 0
 168 560 189 536 189 505 c 0
EndSplineSet
EndChar

StartChar: cent
Encoding: 162 162 111
Width: 494
Flags: MW
HStem: -266 21G -12 61 495 61 812 20G
VStem: 60 56<227 342.5 227 364.5> 226 47
LayerCount: 2
Fore
SplineSet
350 652 m 1
 378 652 l 1
 349 546 l 1
 404 524 434 490 443 477 c 1
 435 470 417 452 409 445 c 1
 409 445 377 474 336 494 c 1
 221 56 l 1
 246 47 264 43 280 43 c 0
 319 43 363 54 418 102 c 1
 433 87 439 79 453 67 c 1
 380 -5 326 -12 280 -12 c 0
 262 -12 236 -8 206 0 c 1
 200 -27 190 -64 183 -92 c 1
 155 -92 l 1
 182 13 l 1
 106 61 60 153 60 262 c 0
 60 467 185 556 287 556 c 0
 293 556 309 554 323 552 c 1
 330 582 342 621 350 652 c 1
116 262 m 0
 116 192 145 121 196 66 c 1
 310 500 l 1
 285 500 l 2
 207 500 116 423 116 262 c 0
EndSplineSet
EndChar

StartChar: sterling
Encoding: 163 163 181
Width: 575
Flags: MW
HStem: 0 68 472 52 750 20G
VStem: 92 59
LayerCount: 2
Fore
SplineSet
160 54 m 0
 113 54 84 13 73 -3 c 1
 34 18 l 1
 34 18 82 89 142 108 c 1
 173 273 l 1
 97 273 l 1
 97 324 l 1
 183 324 l 1
 211 466 246 636 263 704 c 1
 263 703 l 1
 289 803 370 826 404 826 c 0
 454 826 492 793 536 746 c 1
 501 718 l 1
 468 753 442 775 404 775 c 0
 382 775 331 760 315 690 c 1
 315 691 l 1
 300 636 276 510 251 387 c 1
 239 324 l 1
 391 324 l 1
 391 273 l 1
 227 273 l 1
 196 106 l 1
 236 95 263 84 286 74 c 0
 320 59 355 43 392 43 c 0
 433 43 476 79 495 97 c 1
 528 64 l 1
 528 64 448 -12 392 -12 c 0
 346 -12 306 5 267 23 c 1
 232 38 197 54 160 54 c 0
EndSplineSet
EndChar

StartChar: yen
Encoding: 165 165 176
Width: 601
Flags: MW
HStem: 1 21G 172 49<88 276 88 276 335 521> 337 48<88 266 88 276 88 266 343 521> 750 20G<21 94 94 94 520 588 588 588>
VStem: 276 59<0 172 0 172 221 337>
LayerCount: 2
Fore
SplineSet
521 221 m 1
 521 172 l 1
 335 172 l 1
 335 0 l 1
 276 0 l 1
 276 172 l 1
 88 172 l 1
 88 221 l 1
 276 221 l 1
 276 337 l 1
 88 337 l 1
 88 385 l 1
 266 385 l 1
 188 508 99 646 21 770 c 1
 94 770 l 1
 306 437 l 1
 520 770 l 1
 588 770 l 1
 343 385 l 1
 521 385 l 1
 521 337 l 1
 335 337 l 1
 335 221 l 1
 521 221 l 1
EndSplineSet
EndChar

StartChar: dieresis
Encoding: 168 168 101
Width: 418
Flags: MW
HStem: 626 85
VStem: 71 75<657 681> 278 75<657 681>
LayerCount: 2
Fore
SplineSet
71 669 m 0
 71 693 88 709 109 709 c 0
 130 709 146 693 146 669 c 0
 146 645 130 629 109 629 c 0
 88 629 71 645 71 669 c 0
278 669 m 0
 278 693 294 709 316 709 c 0
 337 709 353 693 353 669 c 0
 353 645 337 629 316 629 c 0
 294 629 278 645 278 669 c 0
EndSplineSet
EndChar

StartChar: copyright
Encoding: 169 169 109
Width: 865
Flags: MW
HStem: 0 39<342.5 535 342.5 544> 179 44<402.5 451.5 402.5 453.5> 545 46<413.5 463.5> 731 40<342.5 535>
VStem: 58 29<290.5 480.5 290.5 492> 279 42<336.5 435 336.5 451> 790 29<290.5 480.5>
LayerCount: 2
Fore
SplineSet
58 385 m 0
 58 599 228 771 439 771 c 0
 649 771 819 599 819 385 c 0
 819 172 649 0 439 0 c 0
 228 0 58 172 58 385 c 0
442 591 m 0
 510 591 548 543 555 532 c 1
 546 524 536 513 529 506 c 1
 529 506 487 545 440 545 c 0
 387 545 321 493 321 377 c 0
 321 296 368 223 437 223 c 0
 466 223 496 231 535 264 c 1
 561 238 l 1
 508 186 470 179 437 179 c 0
 342 179 279 265 279 377 c 0
 279 525 370 591 442 591 c 0
87 385 m 0
 87 196 246 39 439 39 c 0
 631 39 790 196 790 385 c 0
 790 576 631 731 439 731 c 0
 246 731 87 576 87 385 c 0
EndSplineSet
EndChar

StartChar: registered
Encoding: 174 174 110
Width: 865
Flags: MW
HStem: 0 39<342.5 535 342.5 544> 731 40<342.5 535>
VStem: 58 29<290.5 480.5 290.5 492> 302 33<183 354 385 532 564 589> 530 32<482 508> 790 29<290.5 480.5>
LayerCount: 2
Fore
SplineSet
335 183 m 1
 302 183 l 1
 302 589 l 1
 335 589 l 1
 335 564 l 1
 385 591 416 595 449 595 c 1
 499 592 562 564 562 482 c 1
 561 403 515 371 460 355 c 1
 485 332 516 296 536 267 c 1
 556 240 580 210 611 183 c 1
 563 183 l 1
 544 197 523 226 504 255 c 1
 475 294 434 339 396 354 c 1
 335 354 l 1
 335 183 l 1
434 385 m 1
 476 386 529 405 530 482 c 0
 530 534 489 557 450 560 c 0
 409 563 369 553 335 532 c 1
 335 385 l 1
 434 385 l 1
58 385 m 0
 58 599 228 771 439 771 c 0
 649 771 819 599 819 385 c 0
 819 172 649 0 439 0 c 0
 228 0 58 172 58 385 c 0
87 385 m 0
 87 196 246 39 439 39 c 0
 631 39 790 196 790 385 c 0
 790 576 631 731 439 731 c 0
 246 731 87 576 87 385 c 0
EndSplineSet
EndChar

StartChar: acute
Encoding: 180 180 102
Width: 329
Flags: MW
HStem: 627 21G 736 20G<190 256 256 256>
LayerCount: 2
Fore
SplineSet
190 756 m 1
 256 756 l 1
 109 626 l 1
 73 626 l 1
 190 756 l 1
EndSplineSet
EndChar

StartChar: paragraph
Encoding: 182 182 182
Width: 718
Flags: MW
HStem: -256 21G 732 38<437 539 437 437 566 643 566 566>
VStem: 409 28<-257 301 301 301> 539 27<-257 732 -257 732>
LayerCount: 2
Fore
SplineSet
437 -257 m 1
 409 -257 l 1
 409 301 l 1
 409 301 315 233 245 233 c 0
 141 233 54 341 54 501 c 0
 54 649 160 770 317 770 c 2
 643 770 l 1
 643 732 l 1
 566 732 l 1
 566 -257 l 1
 539 -257 l 1
 539 732 l 1
 437 732 l 1
 437 -257 l 1
EndSplineSet
EndChar

StartChar: periodcentered
Encoding: 183 183 173
Width: 231
Flags: MW
HStem: 221 99<105.5 131>
VStem: 72 90<257 286>
LayerCount: 2
Fore
SplineSet
72 272 m 0
 72 300 92 320 119 320 c 0
 143 320 162 300 162 272 c 0
 162 242 143 221 119 221 c 0
 92 221 72 242 72 272 c 0
EndSplineSet
EndChar

StartChar: cedilla
Encoding: 184 184 170
Width: 311
Flags: MW
HStem: -274 51 461 93
VStem: -166 55 0 83 73 48
LayerCount: 2
Fore
SplineSet
209 -137 m 0
 209 -101 179 -84 132 -83 c 1
 143 -62 166 -22 178 -1 c 1
 201 -1 l 1
 167 -71 l 1
 212 -77 243 -95 243 -137 c 0
 243 -174 217 -209 150 -209 c 0
 115 -209 89 -190 74 -178 c 1
 87 -161 l 1
 101 -172 120 -183 150 -183 c 0
 192 -183 209 -159 209 -137 c 0
132 -83 m 1
 132 -83 l 1
EndSplineSet
EndChar

StartChar: questiondown
Encoding: 191 191 99
Width: 488
Flags: MW
HStem: -274 51<176 288 176 300> 461 93<238.5 262>
VStem: 43 56<-122.5 -100 -122.5 -45.5> 209 84<493.5 520.5> 282 49<241 272.5>
LayerCount: 2
Fore
SplineSet
99 -100 m 1xe8
 99 -145 111 -223 241 -223 c 0
 335 -223 395 -142 416 -110 c 1
 449 -142 l 1
 449 -142 359 -274 241 -274 c 0
 71 -274 43 -163 43 -100 c 0
 43 9 124 79 195 143 c 0
 243 186 282 225 282 257 c 0
 282 288 263 311 232 339 c 1
 247 352 259 361 272 372 c 1
 302 342 331 306 331 256 c 0
 331 193 286 148 229 95 c 1
 167 40 102 -26 99 -100 c 1xe8
293 507 m 0xf0
 293 480 274 461 250 461 c 0
 227 461 209 480 209 507 c 0
 209 534 227 554 250 554 c 0
 274 554 293 534 293 507 c 0xf0
EndSplineSet
EndChar

StartChar: Aacute
Encoding: 193 193 150
Width: 694
Flags: MW
HStem: 1 21G 269 57<216 486 216 507 196 486> 750 20G<316 388 388 388>
LayerCount: 2
Fore
SplineSet
467 971 m 1
 532 971 l 1
 386 842 l 1
 350 842 l 1
 467 971 l 1
316 770 m 1
 388 770 l 1
 671 0 l 1
 607 0 l 1
 507 269 l 1
 196 269 l 1
 165 184 128 85 96 0 c 1
 32 0 l 1
 316 770 l 1
350 705 m 1
 350 705 334 643 216 326 c 1
 486 326 l 1
 371 635 350 705 350 705 c 1
EndSplineSet
EndChar

StartChar: Atilde
Encoding: 195 195 278
Width: 694
Flags: MW
HStem: 1 21G 269 57<216 486 216 507 196 486> 750 20G<316 388 388 388> 843 47<445 445> 892 46<249 249>
LayerCount: 2
Fore
SplineSet
316 770 m 1
 388 770 l 1
 671 0 l 1
 607 0 l 1
 507 269 l 1
 196 269 l 1
 165 184 128 85 96 0 c 1
 32 0 l 1
 316 770 l 1
350 705 m 1
 350 705 334 643 216 326 c 1
 486 326 l 1
 371 635 350 705 350 705 c 1
526 917 m 1x18
 541 889 l 1
 541 889 496 846 445 843 c 0
 378 838 321 894 249 892 c 0
 207 890 183 876 168 864 c 1
 161 878 159 880 153 892 c 1
 153 892 198 935 249 938 c 0
 315 943 373 888 445 890 c 0
 488 892 512 905 526 917 c 1x18
EndSplineSet
EndChar

StartChar: Adieresis
Encoding: 196 196 276
Width: 694
Flags: MW
HStem: 1 21G 269 57<216 486 216 507 196 486> 750 20G<316 388 388 388> 847 85
VStem: 206 75<878 902> 413 75<878 902>
LayerCount: 2
Fore
SplineSet
316 770 m 1
 388 770 l 1
 671 0 l 1
 607 0 l 1
 507 269 l 1
 196 269 l 1
 165 184 128 85 96 0 c 1
 32 0 l 1
 316 770 l 1
350 705 m 1
 350 705 334 643 216 326 c 1
 486 326 l 1
 371 635 350 705 350 705 c 1
206 890 m 0x1c
 206 914 223 930 244 930 c 0
 265 930 281 914 281 890 c 0
 281 866 265 850 244 850 c 0
 223 850 206 866 206 890 c 0x1c
413 890 m 0
 413 914 429 930 451 930 c 0
 472 930 488 914 488 890 c 0
 488 866 472 850 451 850 c 0
 429 850 413 866 413 890 c 0
EndSplineSet
EndChar

StartChar: Aring
Encoding: 197 197 277
Width: 694
Flags: MW
HStem: 1 21G 269 57<216 486 216 507 196 486> 750 20G<316 388 388 388> 815 29 960 27
VStem: 269 18 414 17
LayerCount: 2
Fore
SplineSet
316 770 m 1
 388 770 l 1
 671 0 l 1
 607 0 l 1
 507 269 l 1
 196 269 l 1
 165 184 128 85 96 0 c 1
 32 0 l 1
 316 770 l 1
350 705 m 1
 350 705 334 643 216 326 c 1
 486 326 l 1
 371 635 350 705 350 705 c 1
262 894 m 0
 262 940 303 977 352 977 c 0
 400 977 438 940 438 894 c 0
 438 847 400 809 352 809 c 0
 303 809 262 847 262 894 c 0
295 894 m 0
 295 866 321 843 352 843 c 0
 380 843 405 866 405 894 c 0
 405 920 380 944 352 944 c 0
 321 944 295 920 295 894 c 0
EndSplineSet
EndChar

StartChar: AE
Encoding: 198 198 163
Width: 964
Flags: MW
HStem: 1 21G 269 57<285 517 285 517 253 517> 370 57 750 20G<483 828 828 848> 755 20G
VStem: 732 59
LayerCount: 2
Fore
SplineSet
935 0 m 1xec
 517 0 l 1
 517 269 l 1
 253 269 l 1
 205 181 146 88 98 0 c 1
 19 0 l 1
 483 770 l 1
 828 770 l 2xf4
 868 770 902 772 921 773 c 1
 921 714 l 1
 577 714 l 1
 577 428 l 1
 869 428 l 1
 869 371 l 1
 577 371 l 1
 577 57 l 1
 843 57 l 2
 883 57 917 60 935 61 c 1
 935 0 l 1xec
517 714 m 1
 285 326 l 1
 517 326 l 1
 517 696 l 1
 517 714 l 1
EndSplineSet
EndChar

StartChar: Ccedilla
Encoding: 199 199 279
Width: 628
Flags: MW
HStem: -274 51 -12 65 461 93 715 65
VStem: 12 55 69 61 178 83 251 48
LayerCount: 2
Fore
SplineSet
580 689 m 1
 540 650 l 1
 540 650 463 720 368 720 c 0
 248 720 126 602 126 362 c 0
 126 184 237 48 368 45 c 0
 483 42 549 103 572 127 c 1
 609 91 l 1
 564 46 491 -14 363 -15 c 1
 194 -6 64 149 64 362 c 0
 64 640 213 785 369 785 c 0
 505 785 566 709 580 689 c 1
387 -137 m 0
 387 -101 357 -84 310 -83 c 1
 321 -62 344 -22 356 -1 c 1
 379 -1 l 1
 345 -71 l 1
 390 -77 421 -95 421 -137 c 0
 421 -174 395 -209 328 -209 c 0
 293 -209 267 -190 252 -178 c 1
 265 -161 l 1
 279 -172 298 -183 328 -183 c 0
 370 -183 387 -159 387 -137 c 0
310 -83 m 1
 310 -83 l 1
EndSplineSet
EndChar

StartChar: Egrave
Encoding: 200 200 151
Width: 546
Flags: MW
HStem: 0 68 370 57 702 68 755 20G 843 21G 966 20G
VStem: 90 59
LayerCount: 2
Fore
SplineSet
508 0 m 1xde
 91 0 l 1
 91 770 l 1
 402 770 l 2xee
 442 770 476 772 494 773 c 1
 494 714 l 1
 150 714 l 1
 150 428 l 1
 443 428 l 1
 443 371 l 1
 150 371 l 1
 150 57 l 1
 416 57 l 2
 456 57 490 60 508 61 c 1
 508 0 l 1xde
128 971 m 1
 194 971 l 1
 311 842 l 1
 275 842 l 1
 128 971 l 1
EndSplineSet
EndChar

StartChar: Ecircumflex
Encoding: 202 202 129
Width: 546
Flags: MW
HStem: 0 68 370 57 702 68 755 20G
VStem: 90 59
LayerCount: 2
Fore
SplineSet
508 0 m 1xd8
 91 0 l 1
 91 770 l 1
 402 770 l 2xe8
 442 770 476 772 494 773 c 1
 494 714 l 1
 150 714 l 1
 150 428 l 1
 443 428 l 1
 443 371 l 1
 150 371 l 1
 150 57 l 1
 416 57 l 2
 456 57 490 60 508 61 c 1
 508 0 l 1xd8
249 971 m 1
 302 971 l 1
 440 842 l 1
 383 842 l 1
 275 947 l 1
 168 842 l 1
 111 842 l 1
 164 890 196 923 249 971 c 1
EndSplineSet
EndChar

StartChar: Edieresis
Encoding: 203 203 280
Width: 546
Flags: MW
HStem: 0 68 370 57 702 68 755 20G 823 85
VStem: 90 59 132 75<854 878> 339 75<854 878>
LayerCount: 2
Fore
SplineSet
508 0 m 1xd4
 91 0 l 1
 91 770 l 1
 402 770 l 2xe4
 442 770 476 772 494 773 c 1
 494 714 l 1
 150 714 l 1
 150 428 l 1
 443 428 l 1
 443 371 l 1
 150 371 l 1
 150 57 l 1
 416 57 l 2
 456 57 490 60 508 61 c 1
 508 0 l 1xd4
132 866 m 0x0b
 132 890 149 906 170 906 c 0
 191 906 207 890 207 866 c 0
 207 842 191 826 170 826 c 0
 149 826 132 842 132 866 c 0x0b
339 866 m 0
 339 890 355 906 377 906 c 0
 398 906 414 890 414 866 c 0
 414 842 398 826 377 826 c 0
 355 826 339 842 339 866 c 0
EndSplineSet
EndChar

StartChar: Igrave
Encoding: 204 204 153
Width: 237
Flags: MW
HStem: 1 21G 750 20G<91 150 150 150> 843 21G 966 20G
VStem: 91 59<0 770>
LayerCount: 2
Fore
SplineSet
150 0 m 1
 91 0 l 1
 91 770 l 1
 150 770 l 1
 150 0 l 1
-40 971 m 1
 26 971 l 1
 143 842 l 1
 107 842 l 1
 -40 971 l 1
EndSplineSet
EndChar

StartChar: Iacute
Encoding: 205 205 152
Width: 237
Flags: MW
HStem: 1 21G 750 20G<89 149 149 149>
VStem: 89 60<0 770>
LayerCount: 2
Fore
SplineSet
149 0 m 1
 89 0 l 1
 89 770 l 1
 149 770 l 1
 149 0 l 1
214 971 m 1
 280 971 l 1
 133 842 l 1
 97 842 l 1
 214 971 l 1
EndSplineSet
EndChar

StartChar: Icircumflex
Encoding: 206 206 130
Width: 274
Flags: MW
HStem: 1 21G 750 20G<109 169 169 169>
VStem: 109 60<0 770>
LayerCount: 2
Fore
SplineSet
169 0 m 1
 109 0 l 1
 109 770 l 1
 169 770 l 1
 169 0 l 1
112 971 m 1
 166 971 l 1
 303 842 l 1
 247 842 l 1
 139 947 l 1
 31 842 l 1
 -25 842 l 1
 27 890 60 923 112 971 c 1
EndSplineSet
EndChar

StartChar: Idieresis
Encoding: 207 207 120
Width: 236
Flags: MW
HStem: 1 21G 750 20G<90 149 149 149>
VStem: 90 59<0 770>
LayerCount: 2
Fore
SplineSet
149 0 m 1
 90 0 l 1
 90 770 l 1
 149 770 l 1
 149 0 l 1
-21 890 m 0
 -21 914 -5 928 17 928 c 0
 38 928 54 914 54 890 c 0
 54 865 38 851 17 851 c 0
 -5 851 -21 865 -21 890 c 0
185 890 m 0
 185 914 202 928 223 928 c 0
 245 928 260 914 260 890 c 0
 260 865 245 851 223 851 c 0
 202 851 185 865 185 890 c 0
EndSplineSet
EndChar

StartChar: Eth
Encoding: 208 208 174
Width: 761
Flags: MW
HStem: -41 20G -12 67 246 52 713 67
VStem: 154 60<57 377 57 377 57 377 428 707> 668 60
LayerCount: 2
Fore
SplineSet
154 0 m 1
 154 377 l 1
 74 377 l 1
 74 428 l 1
 154 428 l 1
 154 759 l 1
 245 770 293 775 351 775 c 0
 533 775 707 717 707 380 c 0
 707 138 581 0 400 0 c 2
 154 0 l 1
398 428 m 1
 398 377 l 1
 214 377 l 1
 214 57 l 1
 400 57 l 2
 542 57 648 179 648 380 c 0
 648 580 585 719 353 719 c 0
 298 719 255 711 232 708 c 0
 230 707 235 707 214 707 c 1
 214 428 l 1
 398 428 l 1
EndSplineSet
EndChar

StartChar: Ntilde
Encoding: 209 209 133
Width: 708
Flags: MW
HStem: 1 21G 750 20G<90 155 155 155 568 628 628 628>
VStem: 90 59<0 614> 568 60<158 770 0 770>
LayerCount: 2
Fore
SplineSet
149 0 m 1
 90 0 l 1
 90 770 l 1
 155 770 l 1
 533 153 l 1
 533 154 l 1
 544 136 l 1
 569 140 l 1
 568 158 l 1
 568 770 l 1
 628 770 l 1
 628 0 l 1
 563 0 l 1
 184 619 l 1
 184 618 l 1
 174 637 l 1
 148 632 l 1
 149 614 l 1
 149 0 l 1
537 921 m 1
 552 892 l 1
 552 892 508 850 456 847 c 0
 431 845 392 857 358 871 c 1
 326 883 289 896 260 895 c 0
 218 893 195 880 179 868 c 1
 172 882 170 884 164 895 c 1
 164 895 209 938 260 941 c 1
 287 944 323 930 359 918 c 1
 391 906 428 892 456 893 c 0
 499 895 523 909 537 921 c 1
EndSplineSet
EndChar

StartChar: Ograve
Encoding: 210 210 155
Width: 741
Flags: MW
HStem: -7 63 717 63 843 21G 966 20G
VStem: 65 60 631 59
LayerCount: 2
Fore
SplineSet
378 785 m 0
 522 785 686 695 687 386 c 1
 687 71 530 -15 375 -15 c 0
 231 -15 64 70 64 384 c 0
 64 697 231 785 378 785 c 0
378 729 m 0
 264 729 123 646 123 386 c 0
 123 122 264 42 375 42 c 0
 495 42 627 121 628 384 c 0
 628 642 495 729 378 729 c 0
207 971 m 1
 272 971 l 1
 389 842 l 1
 353 842 l 1
 207 971 l 1
EndSplineSet
EndChar

StartChar: Oacute
Encoding: 211 211 154
Width: 741
Flags: MW
HStem: -7 63 717 63
VStem: 65 60 631 59
LayerCount: 2
Fore
SplineSet
378 785 m 0
 522 785 686 695 687 386 c 1
 687 71 530 -15 375 -15 c 0
 231 -15 64 70 64 384 c 0
 64 697 231 785 378 785 c 0
378 729 m 0
 264 729 123 646 123 386 c 0
 123 122 264 42 375 42 c 0
 495 42 627 121 628 384 c 0
 628 642 495 729 378 729 c 0
483 971 m 1
 549 971 l 1
 402 842 l 1
 366 842 l 1
 483 971 l 1
EndSplineSet
EndChar

StartChar: Otilde
Encoding: 213 213 136
Width: 741
Flags: MW
HStem: -7 63 717 63
VStem: 65 60 631 59
LayerCount: 2
Fore
SplineSet
378 785 m 0
 522 785 686 695 687 386 c 1
 687 71 530 -15 375 -15 c 0
 231 -15 64 70 64 384 c 0
 64 697 231 785 378 785 c 0
378 729 m 0
 264 729 123 646 123 386 c 0
 123 122 264 42 375 42 c 0
 495 42 627 121 628 384 c 0
 628 642 495 729 378 729 c 0
557 921 m 1
 571 892 l 1
 571 892 527 850 476 847 c 0
 450 845 411 857 377 871 c 1
 345 883 308 896 280 895 c 0
 237 893 214 880 198 868 c 1
 191 882 189 884 183 895 c 1
 183 895 228 938 280 941 c 1
 306 944 342 930 378 918 c 1
 410 906 447 892 476 893 c 0
 519 895 542 909 557 921 c 1
EndSplineSet
EndChar

StartChar: Odieresis
Encoding: 214 214 121
Width: 741
Flags: MW
HStem: -7 63 717 63
VStem: 65 60 631 59
LayerCount: 2
Fore
SplineSet
378 785 m 0
 522 785 686 695 687 386 c 1
 687 71 530 -15 375 -15 c 0
 231 -15 64 70 64 384 c 0
 64 697 231 785 378 785 c 0
378 729 m 0
 264 729 123 646 123 386 c 0
 123 122 264 42 375 42 c 0
 495 42 627 121 628 384 c 0
 628 642 495 729 378 729 c 0
236 890 m 0
 236 914 253 929 274 929 c 0
 295 929 311 914 311 890 c 0
 311 865 295 850 274 850 c 0
 253 850 236 865 236 890 c 0
443 890 m 0
 443 914 459 929 481 929 c 0
 502 929 518 914 518 890 c 0
 518 865 502 850 481 850 c 0
 459 850 443 865 443 890 c 0
EndSplineSet
EndChar

StartChar: Oslash
Encoding: 216 216 168
Width: 741
Flags: MW
HStem: -266 21G -7 63 717 63 750 20G
VStem: 65 60 631 59
LayerCount: 2
Fore
SplineSet
378 785 m 0
 424 785 479 773 534 744 c 1
 566 806 l 1
 615 806 l 1
 569 719 l 1
 638 657 686 552 687 386 c 1
 687 71 530 -15 375 -15 c 0
 326 -15 271 -3 215 26 c 1
 183 -36 l 1
 135 -36 l 1
 179 51 l 1
 111 113 64 217 64 384 c 0
 64 697 231 785 378 785 c 0
628 384 m 0
 628 503 593 594 540 662 c 1
 244 84 l 1
 290 53 335 42 375 42 c 0
 495 42 627 121 628 384 c 0
378 729 m 0
 264 729 123 646 123 386 c 0
 123 267 158 178 210 111 c 1
 506 688 l 1
 462 717 417 729 378 729 c 0
EndSplineSet
EndChar

StartChar: Ugrave
Encoding: 217 217 157
Width: 669
Flags: MW
HStem: -12 58<308 371 308 380.5> 750 20G<90 150 150 150 528 588 588 588> 843 21G 966 20G
VStem: 76 59 543 59
LayerCount: 2
Fore
SplineSet
588 235 m 1
 587 13 421 -12 340 -12 c 0
 257 -12 91 15 90 235 c 1
 90 770 l 1
 150 770 l 1
 150 237 l 2
 150 69 276 46 340 46 c 0
 402 46 527 73 528 235 c 1
 528 770 l 1
 588 770 l 1
 588 235 l 1
170 971 m 1
 236 971 l 1
 353 842 l 1
 317 842 l 1
 170 971 l 1
EndSplineSet
EndChar

StartChar: Uacute
Encoding: 218 218 156
Width: 669
Flags: MW
HStem: -12 58<308 371 308 380.5> 750 20G<90 150 150 150 528 588 588 588>
VStem: 76 59 543 59
LayerCount: 2
Fore
SplineSet
588 235 m 1
 587 13 421 -12 340 -12 c 0
 257 -12 91 15 90 235 c 1
 90 770 l 1
 150 770 l 1
 150 237 l 2
 150 69 276 46 340 46 c 0
 402 46 527 73 528 235 c 1
 528 770 l 1
 588 770 l 1
 588 235 l 1
446 971 m 1
 512 971 l 1
 365 842 l 1
 329 842 l 1
 446 971 l 1
EndSplineSet
EndChar

StartChar: Ucircumflex
Encoding: 219 219 132
Width: 669
Flags: MW
HStem: -12 58<308 371 308 380.5> 750 20G<90 150 150 150 528 588 588 588>
VStem: 76 59 543 59
LayerCount: 2
Fore
SplineSet
588 235 m 1
 587 13 421 -12 340 -12 c 0
 257 -12 91 15 90 235 c 1
 90 770 l 1
 150 770 l 1
 150 237 l 2
 150 69 276 46 340 46 c 0
 402 46 527 73 528 235 c 1
 528 770 l 1
 588 770 l 1
 588 235 l 1
315 971 m 1
 368 971 l 1
 506 842 l 1
 449 842 l 1
 342 947 l 1
 234 842 l 1
 177 842 l 1
 230 890 263 923 315 971 c 1
EndSplineSet
EndChar

StartChar: Udieresis
Encoding: 220 220 115
Width: 669
Flags: MW
HStem: -12 58<308 371 308 380.5> 750 20G<90 150 150 150 528 588 588 588>
VStem: 76 59 543 59
LayerCount: 2
Fore
SplineSet
588 235 m 1
 587 13 421 -12 340 -12 c 0
 257 -12 91 15 90 235 c 1
 90 770 l 1
 150 770 l 1
 150 237 l 2
 150 69 276 46 340 46 c 0
 402 46 527 73 528 235 c 1
 528 770 l 1
 588 770 l 1
 588 235 l 1
201 890 m 0
 201 914 217 929 239 929 c 0
 259 929 276 914 276 890 c 0
 276 865 259 850 239 850 c 0
 217 850 201 865 201 890 c 0
407 890 m 0
 407 914 424 929 445 929 c 0
 467 929 482 914 482 890 c 0
 482 865 467 850 445 850 c 0
 424 850 407 865 407 890 c 0
EndSplineSet
EndChar

StartChar: Yacute
Encoding: 221 221 179
Width: 601
Flags: MW
HStem: 1 21G 750 20G<22 94 94 94 520 588 588 588>
VStem: 276 59<0 371 0 371>
LayerCount: 2
Fore
SplineSet
520 770 m 1
 588 770 l 1
 335 371 l 1
 335 0 l 1
 276 0 l 1
 276 371 l 1
 22 770 l 1
 94 770 l 1
 306 437 l 1
 520 770 l 1
378 981 m 1
 444 981 l 1
 297 852 l 1
 261 852 l 1
 378 981 l 1
EndSplineSet
EndChar

StartChar: Thorn
Encoding: 222 222 177
Width: 613
Flags: MW
HStem: 1 21G 137 61<297.5 381 297.5 398.5> 617 59<306 365> 750 20G<90 150 150 150>
VStem: 90 60<0 204 272 559 616 770> 500 56<349 482>
LayerCount: 2
Fore
SplineSet
150 0 m 1
 90 0 l 1
 90 770 l 1
 150 770 l 1
 150 616 l 1
 210 652 278 676 334 676 c 0
 465 676 556 573 556 426 c 0
 556 236 471 137 326 137 c 0
 262 137 203 167 150 204 c 1
 150 0 l 1
500 426 m 0
 500 538 426 617 304 617 c 0
 250 617 199 595 150 559 c 1
 150 272 l 1
 202 226 264 198 331 198 c 0
 431 198 500 272 500 426 c 0
EndSplineSet
EndChar

StartChar: germandbls
Encoding: 223 223 158
Width: 636
Flags: MW
HStem: 0 64<318.5 408 317.5 438.5> 411 54 498 52<36 110 36 110> 779 58<270.5 336.5>
VStem: 36 129<498 550 550 550> 110 55<0 498 498 498 550 660 0 722.5> 461 56<644 647> 529 56<197 303.5 190 316.5>
LayerCount: 2
Fore
SplineSet
268 411 m 1xf7
 268 466 l 1
 347 472 461 505 461 647 c 1
 459 749 361 779 312 779 c 0
 229 779 172 746 165 660 c 1
 165 0 l 1
 110 0 l 1
 110 498 l 1xf7
 36 498 l 1
 36 550 l 1xfb
 110 550 l 1
 110 660 l 2
 110 785 198 837 312 837 c 0
 390 837 517 798 517 644 c 1
 516 554 477 493 423 453 c 1
 508 428 585 362 585 245 c 0
 585 135 551 0 326 0 c 0
 311 0 290 3 270 8 c 1
 270 68 l 1
 287 66 310 64 325 64 c 0
 491 64 529 149 529 245 c 0
 529 388 388 412 268 411 c 1xf7
EndSplineSet
EndChar

StartChar: agrave
Encoding: 224 224 141
Width: 548
Flags: MW
HStem: -12 51 512 50 635 21G 758 20G
VStem: 64 55 409 53
LayerCount: 2
Fore
SplineSet
329 502 m 0
 254 502 149 450 109 429 c 1
 106 435 l 2
 97 451 84 476 79 475 c 1
 120 499 236 562 341 562 c 0
 447 562 464 460 464 409 c 2
 464 102 l 2
 464 98 462 58 515 27 c 1
 499 13 490 3 476 -9 c 1
 440 8 419 49 409 95 c 1
 349 31 275 -12 204 -12 c 0
 184 -12 59 -2 59 133 c 0
 59 202 87 285 251 309 c 0
 328 321 377 328 409 336 c 1
 409 409 l 2
 409 434 403 502 329 502 c 0
94 421 m 1
 115 416 l 1
 109 429 l 1
 101 424 l 1
 94 421 l 1
79 475 m 1
 78 474 l 2
 78 475 79 475 79 475 c 1
200 39 m 0
 279 34 363 87 409 144 c 1
 409 283 l 1
 385 278 337 270 293 263 c 2
 256 257 l 1
 132 238 113 185 113 133 c 0
 113 53 182 40 200 39 c 0
119 764 m 1
 186 764 l 1
 304 633 l 1
 268 633 l 1
 119 764 l 1
EndSplineSet
EndChar

StartChar: acircumflex
Encoding: 226 226 123
Width: 548
Flags: MW
HStem: -12 51 512 50
VStem: 64 55 409 53
LayerCount: 2
Fore
SplineSet
254 764 m 1
 308 764 l 1
 447 633 l 1
 390 633 l 1
 281 739 l 1
 172 633 l 1
 115 633 l 1
 168 682 201 715 254 764 c 1
329 507 m 0
 254 507 149 450 109 429 c 1
 79 475 l 1
 120 499 236 562 341 562 c 0
 447 562 464 460 464 409 c 2
 464 102 l 2
 464 98 462 58 515 27 c 1
 499 13 490 3 476 -9 c 1
 440 8 419 49 409 95 c 1
 349 31 275 -12 204 -12 c 0
 184 -12 59 -2 59 133 c 0
 59 202 87 285 251 309 c 0
 328 321 377 328 409 336 c 1
 409 409 l 2
 409 434 403 507 329 507 c 0
79 475 m 1
 78 475 79 475 79 475 c 1
200 39 m 0
 279 34 363 101 409 158 c 1
 409 283 l 1
 385 278 337 270 293 263 c 2
 256 257 l 1
 132 238 113 185 113 133 c 0
 113 53 182 40 200 39 c 0
EndSplineSet
EndChar

StartChar: atilde
Encoding: 227 227 134
Width: 548
Flags: MW
HStem: -12 51 512 50
VStem: 64 55 409 53
LayerCount: 2
Fore
SplineSet
463 713 m 1
 477 684 l 1
 477 684 433 641 381 638 c 0
 355 636 315 649 281 662 c 0
 249 675 212 688 183 687 c 0
 140 685 116 671 101 659 c 1
 93 673 91 676 85 687 c 1
 85 687 131 731 183 734 c 0
 210 736 246 722 282 710 c 1
 314 697 352 684 381 685 c 0
 424 687 448 700 463 713 c 1
329 507 m 0
 254 507 149 450 109 429 c 1
 79 475 l 1
 120 499 236 562 341 562 c 0
 447 562 464 460 464 409 c 2
 464 102 l 2
 464 98 462 58 515 27 c 1
 499 13 490 3 476 -9 c 1
 440 8 419 49 409 95 c 1
 349 31 275 -12 204 -12 c 0
 184 -12 59 -2 59 133 c 0
 59 202 87 285 251 309 c 0
 328 321 377 328 409 336 c 1
 409 409 l 2
 409 434 403 507 329 507 c 0
79 475 m 1
 78 475 79 475 79 475 c 1
200 39 m 0
 279 34 363 101 409 158 c 1
 409 283 l 1
 385 278 337 270 293 263 c 2
 256 257 l 1
 132 238 113 185 113 133 c 0
 113 53 182 40 200 39 c 0
EndSplineSet
EndChar

StartChar: aring
Encoding: 229 229 160
Width: 548
Flags: MW
HStem: -12 51 512 50
VStem: 64 55 409 53
LayerCount: 2
Fore
SplineSet
329 507 m 0
 254 507 149 450 109 429 c 1
 79 475 l 1
 120 499 236 562 341 562 c 0
 447 562 464 460 464 409 c 2
 464 102 l 2
 464 98 462 58 515 27 c 1
 499 13 490 3 476 -9 c 1
 440 8 419 49 409 95 c 1
 349 31 275 -12 204 -12 c 0
 184 -12 59 -2 59 133 c 0
 59 202 87 285 251 309 c 0
 328 321 377 328 409 336 c 1
 409 409 l 2
 409 434 403 507 329 507 c 0
79 475 m 1
 78 475 79 475 79 475 c 1
200 39 m 0
 279 34 363 101 409 158 c 1
 409 283 l 1
 385 278 337 270 293 263 c 2
 256 257 l 1
 132 238 113 185 113 133 c 0
 113 53 182 40 200 39 c 0
195 692 m 0
 195 738 236 775 285 775 c 0
 333 775 371 738 371 692 c 0
 371 645 333 607 285 607 c 0
 236 607 195 645 195 692 c 0
228 692 m 0
 228 664 254 641 285 641 c 0
 313 641 338 664 338 692 c 0
 338 718 313 742 285 742 c 0
 254 742 228 718 228 692 c 0
EndSplineSet
EndChar

StartChar: ae
Encoding: 230 230 167
Width: 882
Flags: MW
HStem: -12 51 -12 56 290 56<451 776 451 831 442 776> 506 56 512 50
VStem: -30 55 315 53 521 56
LayerCount: 2
Fore
SplineSet
325 562 m 0
 384 562 420 518 442 468 c 1
 492 526 552 562 617 562 c 0
 815 562 831 358 831 320 c 2
 831 290 l 1
 442 290 l 1
 437 142 500 42 621 42 c 0
 653 42 720 37 799 134 c 1
 812 122 824 109 832 101 c 1
 735 -16 659 -12 621 -12 c 0
 533 -12 465 36 419 109 c 1
 348 28 272 -12 202 -12 c 0
 181 -12 56 -2 56 133 c 0
 56 201 89 284 248 309 c 0
 323 320 359 325 392 334 c 1
 392 409 l 2
 392 434 386 511 313 511 c 0
 238 511 131 449 92 429 c 1
 62 475 l 1
 104 499 219 562 325 562 c 0
92 429 m 1
 92 429 l 1
62 475 m 1
 61 475 62 475 62 475 c 1
197 39 m 0
 277 34 361 97 407 154 c 1
 395 192 392 232 392 279 c 1
 363 274 312 266 253 257 c 0
 129 238 110 185 110 133 c 0
 110 53 179 40 197 39 c 0
617 508 m 0
 530 508 477 437 451 346 c 1
 776 346 l 1
 766 412 726 508 617 508 c 0
EndSplineSet
EndChar

StartChar: ccedilla
Encoding: 231 231 281
Width: 494
Flags: MW
HStem: -274 51 -12 62 461 93 500 62
VStem: -78 55 60 56<205 346.5 205 368.5> 88 83 161 48
LayerCount: 2
Fore
SplineSet
289 562 m 0xda
 381 562 434 499 447 483 c 1
 413 449 l 1
 413 449 363 509 287 509 c 0
 208 509 116 428 116 265 c 0
 116 145 181 40 282 40 c 0
 321 40 366 55 421 103 c 1
 436 88 443 80 456 67 c 1
 382 -5 328 -12 282 -12 c 0
 148 -12 60 109 60 265 c 0xed
 60 472 185 562 289 562 c 0xda
297 -137 m 0
 297 -101 267 -84 220 -83 c 1
 231 -62 254 -22 266 -1 c 1
 289 -1 l 1
 255 -71 l 1
 300 -77 331 -95 331 -137 c 0
 331 -174 305 -209 238 -209 c 0
 203 -209 177 -190 162 -178 c 1
 175 -161 l 1
 189 -172 208 -183 238 -183 c 0
 280 -183 297 -159 297 -137 c 0
220 -83 m 1
 220 -83 l 1
EndSplineSet
EndChar

StartChar: egrave
Encoding: 232 232 139
Width: 563
Flags: MW
HStem: -12 56 290 56<123 448 123 503 114 448> 506 56 635 21G 758 20G
VStem: 58 56
LayerCount: 2
Fore
SplineSet
59 269 m 0
 59 430 149 562 289 562 c 0
 487 562 503 358 503 320 c 2
 503 290 l 1
 114 290 l 1
 109 142 172 42 293 42 c 0
 325 42 392 37 471 134 c 1
 484 122 496 109 504 101 c 1
 407 -16 331 -12 293 -12 c 0
 137 -12 59 117 59 269 c 0
289 508 m 0
 202 508 149 437 123 346 c 1
 448 346 l 1
 438 412 398 508 289 508 c 0
122 764 m 1
 188 764 l 1
 307 633 l 1
 270 633 l 1
 122 764 l 1
EndSplineSet
EndChar

StartChar: edieresis
Encoding: 235 235 142
Width: 563
Flags: MW
HStem: -12 56 290 56<123 448 123 503 114 448> 506 56
VStem: 58 56
LayerCount: 2
Fore
SplineSet
59 269 m 0
 59 430 149 562 289 562 c 0
 487 562 503 358 503 320 c 2
 503 290 l 1
 114 290 l 1
 109 142 172 42 293 42 c 0
 325 42 392 37 471 134 c 1
 484 122 496 109 504 101 c 1
 407 -16 331 -12 293 -12 c 0
 137 -12 59 117 59 269 c 0
289 508 m 0
 202 508 149 437 123 346 c 1
 448 346 l 1
 438 412 398 508 289 508 c 0
138 677 m 0
 138 700 155 716 177 716 c 0
 197 716 214 700 214 677 c 0
 214 652 197 636 177 636 c 0
 155 636 138 652 138 677 c 0
347 677 m 0
 347 700 363 716 385 716 c 0
 407 716 422 700 422 677 c 0
 422 652 407 636 385 636 c 0
 363 636 347 652 347 677 c 0
EndSplineSet
EndChar

StartChar: igrave
Encoding: 236 236 144
Width: 237
Flags: MW
HStem: 1 21G 635 21G 694 84 758 20G
VStem: 95 55<0 550 0 550>
LayerCount: 2
Fore
SplineSet
95 550 m 1
 150 550 l 1
 150 0 l 1
 95 0 l 1
 95 550 l 1
-40 764 m 1
 26 764 l 1
 144 633 l 1
 108 633 l 1
 -40 764 l 1
EndSplineSet
EndChar

StartChar: iacute
Encoding: 237 237 143
Width: 237
Flags: MW
HStem: 1 21G 694 84
VStem: 92 55<0 550 0 550>
LayerCount: 2
Fore
SplineSet
92 550 m 1
 147 550 l 1
 147 0 l 1
 92 0 l 1
 92 550 l 1
216 764 m 1
 282 764 l 1
 134 633 l 1
 97 633 l 1
 216 764 l 1
EndSplineSet
EndChar

StartChar: icircumflex
Encoding: 238 238 125
Width: 274
Flags: MW
HStem: 1 21G 694 84
VStem: 112 55<0 550 0 550>
LayerCount: 2
Fore
SplineSet
112 550 m 1
 167 550 l 1
 167 0 l 1
 112 0 l 1
 112 550 l 1
113 764 m 1
 167 764 l 1
 306 633 l 1
 249 633 l 1
 140 739 l 1
 31 633 l 1
 -26 633 l 1
 27 682 60 715 113 764 c 1
EndSplineSet
EndChar

StartChar: idieresis
Encoding: 239 239 113
Width: 236
Flags: MW
HStem: 1 21G 694 84
VStem: 92 55<0 550 0 550>
LayerCount: 2
Fore
SplineSet
92 550 m 1
 147 550 l 1
 147 0 l 1
 92 0 l 1
 92 550 l 1
-22 677 m 0
 -22 700 -5 719 17 719 c 0
 37 719 54 700 54 677 c 0
 54 652 37 633 17 633 c 0
 -5 633 -22 652 -22 677 c 0
187 677 m 0
 187 700 203 719 225 719 c 0
 247 719 263 700 263 677 c 0
 263 652 247 633 225 633 c 0
 203 633 187 652 187 677 c 0
EndSplineSet
EndChar

StartChar: eth
Encoding: 240 240 175
Width: 595
Flags: MW
HStem: -8 56<223 350.5 223 370> 465 56<230.5 309 213 317> 722 56<224.5 255> 805 20G
VStem: 59 56<204.5 304.5 204.5 321.5> 487 57
LayerCount: 2
Fore
SplineSet
252 778 m 0
 271 778 293 775 318 770 c 1
 328 785 340 801 351 818 c 1
 381 798 l 1
 353 755 l 1
 484 685 544 506 544 364 c 0
 544 128 451 -8 289 -8 c 0
 114 -8 59 147 59 241 c 0
 59 402 147 521 279 521 c 0
 339 521 409 488 486 417 c 1
 466 540 413 661 321 710 c 1
 303 681 278 644 258 613 c 1
 244 622 241 625 229 632 c 1
 284 717 l 1
 263 722 258 722 252 722 c 0
 197 722 166 708 140 692 c 1
 114 737 l 1
 145 757 187 778 252 778 c 0
289 48 m 0
 412 48 482 157 487 346 c 1
 424 427 355 465 279 465 c 0
 182 465 115 368 115 241 c 0
 115 168 157 48 289 48 c 0
EndSplineSet
EndChar

StartChar: ntilde
Encoding: 241 241 282
Width: 590
Flags: MW
HStem: 1 21G 496 66 631 47<393 393> 680 46<197 197>
VStem: 90 56<0 353 425 550> 471 56<0 395 0 426.5>
LayerCount: 2
Fore
SplineSet
146 0 m 1
 90 0 l 1
 90 550 l 1
 146 550 l 1
 146 425 l 1
 221 497 322 562 411 562 c 0
 494 562 527 499 527 395 c 2
 527 0 l 1
 471 0 l 1
 471 395 l 2
 471 458 454 502 411 502 c 0
 298 502 204 412 146 353 c 1
 146 0 l 1
474 705 m 1x30
 489 677 l 1
 489 677 444 634 393 631 c 0
 326 626 269 682 197 680 c 0
 155 678 131 664 116 652 c 1
 109 666 107 668 101 680 c 1
 101 680 146 723 197 726 c 0
 263 731 321 676 393 678 c 0
 436 680 460 693 474 705 c 1x30
EndSplineSet
EndChar

StartChar: ograve
Encoding: 242 242 146
Width: 572
Flags: MW
HStem: -12 51 511 51 635 21G 758 20G
VStem: 59 56<189.5 361.5 189.5 380.5> 468 56<188 359>
LayerCount: 2
Fore
SplineSet
59 275 m 0
 59 486 175 562 292 562 c 0
 408 562 524 485 524 275 c 0
 524 62 408 -12 292 -12 c 0
 175 -12 59 58 59 275 c 0
468 275 m 0
 468 443 378 512 292 512 c 0
 205 512 115 448 115 275 c 0
 115 104 205 37 292 37 c 0
 378 37 468 101 468 275 c 0
118 764 m 1
 185 764 l 1
 303 633 l 1
 267 633 l 1
 118 764 l 1
EndSplineSet
EndChar

StartChar: ocircumflex
Encoding: 244 244 126
Width: 572
Flags: MW
HStem: -12 51 511 51
VStem: 59 56<189.5 361.5 189.5 380.5> 468 56<188 359>
LayerCount: 2
Fore
SplineSet
59 275 m 0
 59 486 175 562 292 562 c 0
 408 562 524 485 524 275 c 0
 524 62 408 -12 292 -12 c 0
 175 -12 59 58 59 275 c 0
468 275 m 0
 468 443 378 512 292 512 c 0
 205 512 115 448 115 275 c 0
 115 104 205 37 292 37 c 0
 378 37 468 101 468 275 c 0
264 764 m 1
 317 764 l 1
 457 633 l 1
 399 633 l 1
 290 739 l 1
 182 633 l 1
 124 633 l 1
 177 682 211 715 264 764 c 1
EndSplineSet
EndChar

StartChar: otilde
Encoding: 245 245 135
Width: 572
Flags: MW
HStem: -12 51 511 51
VStem: 59 56<189.5 361.5 189.5 380.5> 468 56<188 359>
LayerCount: 2
Fore
SplineSet
59 275 m 0
 59 486 175 562 292 562 c 0
 408 562 524 485 524 275 c 0
 524 62 408 -12 292 -12 c 0
 175 -12 59 58 59 275 c 0
468 275 m 0
 468 443 378 512 292 512 c 0
 205 512 115 448 115 275 c 0
 115 104 205 37 292 37 c 0
 378 37 468 101 468 275 c 0
472 713 m 1
 487 684 l 1
 487 684 442 641 390 638 c 0
 364 636 325 649 290 662 c 1
 258 675 221 688 192 687 c 0
 149 685 125 671 110 659 c 1
 103 673 101 676 94 687 c 1
 94 687 140 731 192 734 c 0
 219 736 255 722 292 710 c 1
 324 697 361 684 390 685 c 0
 434 687 458 700 472 713 c 1
EndSplineSet
EndChar

StartChar: odieresis
Encoding: 246 246 116
Width: 572
Flags: MW
HStem: -12 51 511 51
VStem: 59 56<189.5 361.5 189.5 380.5> 468 56<188 359>
LayerCount: 2
Fore
SplineSet
59 275 m 0
 59 486 175 562 292 562 c 0
 408 562 524 485 524 275 c 0
 524 62 408 -12 292 -12 c 0
 175 -12 59 58 59 275 c 0
468 275 m 0
 468 443 378 512 292 512 c 0
 205 512 115 448 115 275 c 0
 115 104 205 37 292 37 c 0
 378 37 468 101 468 275 c 0
148 677 m 0
 148 700 165 716 187 716 c 0
 207 716 224 700 224 677 c 0
 224 652 207 636 187 636 c 0
 165 636 148 652 148 677 c 0
357 677 m 0
 357 700 374 716 395 716 c 0
 417 716 433 700 433 677 c 0
 433 652 417 636 395 636 c 0
 374 636 357 652 357 677 c 0
EndSplineSet
EndChar

StartChar: oslash
Encoding: 248 248 171
Width: 572
Flags: MW
HStem: -12 51 511 51
VStem: 59 56<239.5 361.5 239.5 380.5> 468 56<188 311>
LayerCount: 2
Fore
SplineSet
59 275 m 0
 59 486 175 562 292 562 c 0
 324 562 361 555 402 538 c 1
 424 583 l 1
 472 583 l 1
 436 513 l 1
 488 465 524 389 524 275 c 0
 524 62 408 -12 292 -12 c 0
 257 -12 219 -4 177 12 c 1
 154 -33 l 1
 106 -33 l 1
 142 37 l 1
 92 84 59 159 59 275 c 0
468 275 m 0
 468 347 444 410 410 462 c 1
 204 62 l 1
 234 45 265 37 292 37 c 0
 378 37 468 101 468 275 c 0
115 275 m 0
 115 204 136 142 169 89 c 1
 375 489 l 1
 345 503 316 512 292 512 c 0
 205 512 115 448 115 275 c 0
EndSplineSet
EndChar

StartChar: uacute
Encoding: 250 250 147
Width: 590
Flags: MW
HStem: -41 20G -12 66 530 20G<75 131 131 131 455 512 512 512>
VStem: 75 56<155 550> 455 57<0 122 122 122 196 550 0 550>
LayerCount: 2
Fore
SplineSet
191 51 m 0
 301 51 397 136 455 196 c 1
 455 550 l 1
 512 550 l 1
 512 0 l 1
 455 0 l 1
 455 122 l 1
 379 50 278 -12 191 -12 c 0
 108 -12 75 51 75 155 c 2
 75 550 l 1
 131 550 l 1
 131 155 l 2
 131 92 147 51 191 51 c 0
399 764 m 1
 466 764 l 1
 317 633 l 1
 281 633 l 1
 399 764 l 1
EndSplineSet
EndChar

StartChar: ucircumflex
Encoding: 251 251 127
Width: 590
Flags: MW
HStem: -41 20G -12 66 530 20G<75 131 131 131 455 512 512 512>
VStem: 75 56<155 550> 455 57<0 119 119 119 201 550 0 550>
LayerCount: 2
Fore
SplineSet
266 764 m 1
 320 764 l 1
 459 633 l 1
 402 633 l 1
 293 739 l 1
 184 633 l 1
 127 633 l 1
 179 682 213 715 266 764 c 1
191 46 m 0
 301 46 397 141 455 201 c 1
 455 550 l 1
 512 550 l 1
 512 0 l 1
 455 0 l 1
 455 119 l 1
 387 48 278 -12 191 -12 c 0
 108 -12 75 51 75 155 c 2
 75 550 l 1
 131 550 l 1
 131 155 l 2
 131 92 147 46 191 46 c 0
EndSplineSet
EndChar

StartChar: thorn
Encoding: 254 254 180
Width: 608
Flags: MW
HStem: -269 21G -41 20G -12 64 498 64<371 371> 821 20G
VStem: -85 56 128 48 332 56
LayerCount: 2
Fore
SplineSet
144 -270 m 1
 90 -270 l 1
 90 778 l 1
 144 778 l 1
 144 432 l 1
 204 510 285 563 371 562 c 0
 488 561 561 430 561 284 c 0
 561 97 476 -12 337 -12 c 0
 289 -12 214 27 144 84 c 1
 144 -270 l 1
371 498 m 0
 254 499 179 400 144 345 c 1
 144 158 l 1
 199 103 277 46 337 46 c 0
 438 46 505 138 505 284 c 0
 505 394 453 497 371 498 c 0
EndSplineSet
EndChar

StartChar: ydieresis
Encoding: 255 255 118
Width: 499
Flags: MW
HStem: -285 21G 530 20G<26 85 85 85 439 503 503 503>
LayerCount: 2
Fore
SplineSet
26 550 m 1
 85 550 l 1
 252 119 l 1
 328 306 419 526 439 550 c 1
 503 550 l 1
 475 513 433 418 243 -47 c 1
 218 -111 191 -178 142 -225 c 0
 94 -271 49 -281 16 -284 c 1
 10 -265 7 -248 2 -229 c 1
 60 -222 84 -203 104 -183 c 1
 103 -183 l 1
 131 -156 152 -127 191 -32 c 2
 221 42 l 1
 26 550 l 1
119 677 m 0
 119 700 135 716 157 716 c 0
 178 716 194 700 194 677 c 0
 194 652 178 636 157 636 c 0
 135 636 119 652 119 677 c 0
327 677 m 0
 327 700 344 716 366 716 c 0
 387 716 403 700 403 677 c 0
 403 652 387 636 366 636 c 0
 344 636 327 652 327 677 c 0
EndSplineSet
EndChar

StartChar: Abreve
Encoding: 258 258 201
Width: 694
Flags: MW
HStem: 1 21G 269 57<216 486 216 507 196 486> 750 20G<316 388 388 388> 834 45 834 132
LayerCount: 2
Fore
SplineSet
316 770 m 1xe0
 388 770 l 1
 671 0 l 1
 607 0 l 1
 507 269 l 1
 196 269 l 1
 165 184 128 85 96 0 c 1
 32 0 l 1
 316 770 l 1xe0
350 705 m 1
 350 705 334 643 216 326 c 1
 486 326 l 1
 371 635 350 705 350 705 c 1
353 843 m 0x08
 276 843 218 897 204 966 c 1
 241 966 l 1x08
 250 920 293 879 353 879 c 0x10
 406 879 447 921 458 966 c 1
 494 966 l 1
 482 895 428 843 353 843 c 0x08
204 966 m 1
 204 966 205 966 204 966 c 1
EndSplineSet
EndChar

StartChar: abreve
Encoding: 259 259 239
Width: 548
Flags: MW
HStem: -12 51 512 50 617 45 617 132
VStem: 64 55 409 53
LayerCount: 2
Fore
SplineSet
329 507 m 0xcc
 254 507 149 450 109 429 c 1
 79 475 l 1
 120 499 236 562 341 562 c 0
 447 562 464 460 464 409 c 2
 464 102 l 2
 464 98 462 58 515 27 c 1
 499 13 490 3 476 -9 c 1
 440 8 419 49 409 95 c 1
 349 31 275 -12 204 -12 c 0
 184 -12 59 -2 59 133 c 0
 59 202 87 285 251 309 c 0
 328 321 377 328 409 336 c 1
 409 409 l 2
 409 434 403 507 329 507 c 0xcc
79 475 m 1
 78 475 79 475 79 475 c 1
200 39 m 0
 279 34 363 101 409 158 c 1
 409 283 l 1
 385 278 337 270 293 263 c 2
 256 257 l 1
 132 238 113 185 113 133 c 0
 113 53 182 40 200 39 c 0
280 626 m 0x10
 203 626 145 680 131 749 c 1
 168 749 l 1x10
 177 703 220 662 280 662 c 0x20
 333 662 374 704 385 749 c 1
 421 749 l 1
 409 678 355 626 280 626 c 0x10
131 749 m 1
 131 749 132 749 131 749 c 1
EndSplineSet
EndChar

StartChar: Aogonek
Encoding: 260 260 202
Width: 694
Flags: MW
HStem: -160 35<628.5 653 628.5 656> 1 21G 12 20G 269 57<216 486 216 507 196 486> 750 20G<316 388 388 388>
VStem: 559 24<-95 -58>
LayerCount: 2
Fore
SplineSet
316 770 m 1x58
 388 770 l 1
 671 0 l 1
 607 0 l 1
 507 269 l 1
 196 269 l 1
 165 184 128 85 96 0 c 1
 32 0 l 1
 316 770 l 1x58
350 705 m 1
 350 705 334 643 216 326 c 1
 486 326 l 1
 371 635 350 705 350 705 c 1
559 -81 m 0xa4
 559 -35 607 11 627 28 c 1
 630 25 634 23 638 20 c 1
 638 20 583 -35 583 -79 c 0
 583 -111 616 -125 641 -125 c 0
 665 -125 683 -118 699 -105 c 1
 721 -124 l 1
 700 -145 671 -160 641 -160 c 0
 605 -160 559 -134 559 -81 c 0xa4
EndSplineSet
EndChar

StartChar: Cacute
Encoding: 262 262 204
Width: 628
Flags: MW
HStem: -22 65 705 65
VStem: 64 61
LayerCount: 2
Fore
SplineSet
467 971 m 1
 533 971 l 1
 386 842 l 1
 350 842 l 1
 467 971 l 1
575 679 m 1
 535 640 l 1
 535 640 458 710 363 710 c 0
 243 710 121 592 121 352 c 0
 121 174 232 38 363 35 c 0
 478 32 544 93 567 117 c 1
 604 81 l 1
 559 36 486 -24 358 -25 c 1
 189 -16 59 139 59 352 c 0
 59 630 208 775 364 775 c 0
 500 775 561 699 575 679 c 1
EndSplineSet
EndChar

StartChar: cacute
Encoding: 263 263 242
Width: 494
Flags: MW
HStem: -12 62 500 62 627 21G 736 20G<368 434 434 434>
VStem: 60 56<205 346.5 205 368.5>
LayerCount: 2
Fore
SplineSet
289 562 m 0
 381 562 434 499 447 483 c 1
 413 449 l 1
 413 449 363 509 287 509 c 0
 208 509 116 428 116 265 c 0
 116 145 181 40 282 40 c 0
 321 40 366 55 421 103 c 1
 436 88 443 80 456 67 c 1
 382 -5 328 -12 282 -12 c 0
 148 -12 60 109 60 265 c 0
 60 472 185 562 289 562 c 0
368 756 m 1x30
 434 756 l 1
 287 626 l 1
 251 626 l 1
 368 756 l 1x30
EndSplineSet
EndChar

StartChar: Ccircumflex
Encoding: 264 264 206
Width: 628
Flags: MW
HStem: -12 65 715 65 837 21G 946 20G<340 393 393 393>
VStem: 69 61
LayerCount: 2
Fore
SplineSet
580 689 m 1
 540 650 l 1
 540 650 463 720 368 720 c 0
 248 720 126 602 126 362 c 0
 126 184 237 48 368 45 c 0
 483 42 549 103 572 127 c 1
 609 91 l 1
 564 46 491 -14 363 -15 c 1
 194 -6 64 149 64 362 c 0
 64 640 213 785 369 785 c 0
 505 785 566 709 580 689 c 1
340 966 m 1x30
 393 966 l 1
 531 836 l 1
 474 836 l 1
 366 941 l 1
 259 836 l 1
 202 836 l 1
 254 885 287 917 340 966 c 1x30
EndSplineSet
EndChar

StartChar: Ccaron
Encoding: 268 268 205
Width: 628
Flags: MW
HStem: -12 65 715 65 837 21G 945 20G<195 252 252 252 467 524 524 524>
VStem: 69 61
LayerCount: 2
Fore
SplineSet
580 689 m 1
 540 650 l 1
 540 650 463 720 368 720 c 0
 248 720 126 602 126 362 c 0
 126 184 237 48 368 45 c 0
 483 42 549 103 572 127 c 1
 609 91 l 1
 564 46 491 -14 363 -15 c 1
 194 -6 64 149 64 362 c 0
 64 640 213 785 369 785 c 0
 505 785 566 709 580 689 c 1
386 836 m 1x30
 333 836 l 1
 195 965 l 1
 252 965 l 1
 359 861 l 1
 391 893 434 934 467 965 c 1
 524 965 l 1
 471 917 438 884 386 836 c 1x30
EndSplineSet
EndChar

StartChar: ccaron
Encoding: 269 269 243
Width: 494
Flags: MW
HStem: -12 62 500 62 622 21G 730 20G<116 173 173 173 388 445 445 445>
VStem: 60 56<205 346.5 205 368.5>
LayerCount: 2
Fore
SplineSet
289 562 m 0
 381 562 434 499 447 483 c 1
 413 449 l 1
 413 449 363 509 287 509 c 0
 208 509 116 428 116 265 c 0
 116 145 181 40 282 40 c 0
 321 40 366 55 421 103 c 1
 436 88 443 80 456 67 c 1
 382 -5 328 -12 282 -12 c 0
 148 -12 60 109 60 265 c 0
 60 472 185 562 289 562 c 0
307 621 m 1x30
 254 621 l 1
 116 750 l 1
 173 750 l 1
 280 646 l 1
 312 678 355 719 388 750 c 1
 445 750 l 1
 392 702 359 669 307 621 c 1x30
EndSplineSet
EndChar

StartChar: Dcaron
Encoding: 270 270 207
Width: 698
Flags: MW
HStem: -41 20G -12 67 713 67 836 21G 944 20G<144 201 201 201 416 473 473 473>
VStem: 90 59<57 707 57 759 57 759> 604 60
LayerCount: 2
Fore
SplineSet
90 0 m 1
 90 759 l 1
 181 770 228 775 287 775 c 0
 469 775 643 717 643 380 c 0
 643 138 517 0 336 0 c 2
 90 0 l 1
584 380 m 0
 584 580 521 719 289 719 c 0
 247 719 164 707 149 707 c 1
 149 57 l 1
 336 57 l 2
 478 57 584 179 584 380 c 0
335 835 m 1x18
 282 835 l 1
 144 964 l 1
 201 964 l 1
 308 860 l 1
 340 892 383 933 416 964 c 1
 473 964 l 1
 420 916 387 883 335 835 c 1x18
EndSplineSet
EndChar

StartChar: Ebreve
Encoding: 276 276 208
Width: 546
Flags: MW
HStem: 0 68 370 57 702 68 755 20G 834 45 834 132
VStem: 90 59
LayerCount: 2
Fore
SplineSet
508 0 m 1xd2
 91 0 l 1
 91 770 l 1
 402 770 l 2xe2
 442 770 476 772 494 773 c 1
 494 714 l 1
 150 714 l 1
 150 428 l 1
 443 428 l 1
 443 371 l 1
 150 371 l 1
 150 57 l 1
 416 57 l 2
 456 57 490 60 508 61 c 1
 508 0 l 1xd2
295 843 m 0x04
 218 843 160 897 146 966 c 1
 183 966 l 1x04
 192 920 235 879 295 879 c 0x08
 348 879 389 921 400 966 c 1
 436 966 l 1
 424 895 370 843 295 843 c 0x04
146 966 m 1
 146 966 147 966 146 966 c 1
EndSplineSet
EndChar

StartChar: ebreve
Encoding: 277 277 245
Width: 563
Flags: MW
HStem: -12 56 290 56<123 448 123 503 114 448> 506 56 617 45 617 132
VStem: 58 56
LayerCount: 2
Fore
SplineSet
59 269 m 0xe4
 59 430 149 562 289 562 c 0
 487 562 503 358 503 320 c 2
 503 290 l 1
 114 290 l 1
 109 142 172 42 293 42 c 0
 325 42 392 37 471 134 c 1
 484 122 496 109 504 101 c 1
 407 -16 331 -12 293 -12 c 0
 137 -12 59 117 59 269 c 0xe4
289 508 m 0
 202 508 149 437 123 346 c 1
 448 346 l 1
 438 412 398 508 289 508 c 0
288 626 m 0x08
 211 626 153 680 139 749 c 1
 176 749 l 1x08
 185 703 228 662 288 662 c 0x10
 341 662 382 704 393 749 c 1
 429 749 l 1
 417 678 363 626 288 626 c 0x08
139 749 m 1
 139 749 140 749 139 749 c 1
EndSplineSet
EndChar

StartChar: Eogonek
Encoding: 280 280 210
Width: 546
Flags: MW
HStem: -160 35<427.5 452 427.5 455> 0 68 12 20G 370 57 702 68 755 20G
VStem: 90 59 358 24<-95 -58>
LayerCount: 2
Fore
SplineSet
508 0 m 1x56
 91 0 l 1
 91 770 l 1
 402 770 l 2x5a
 442 770 476 772 494 773 c 1
 494 714 l 1
 150 714 l 1
 150 428 l 1
 443 428 l 1
 443 371 l 1
 150 371 l 1
 150 57 l 1
 416 57 l 2
 456 57 490 60 508 61 c 1
 508 0 l 1x56
358 -81 m 0xa1
 358 -35 406 11 426 28 c 1
 429 25 433 23 437 20 c 1
 437 20 382 -35 382 -79 c 0
 382 -111 415 -125 440 -125 c 0
 464 -125 482 -118 498 -105 c 1
 520 -124 l 1
 499 -145 470 -160 440 -160 c 0
 404 -160 358 -134 358 -81 c 0xa1
EndSplineSet
EndChar

StartChar: eogonek
Encoding: 281 281 247
Width: 563
Flags: MW
HStem: -160 35<324.5 349 324.5 352> -12 56 12 20G 290 56<123 448 123 503 114 448> 506 56
VStem: 58 56 255 24<-95 -58>
LayerCount: 2
Fore
SplineSet
59 269 m 0x5c
 59 430 149 562 289 562 c 0
 487 562 503 358 503 320 c 2
 503 290 l 1
 114 290 l 1
 109 142 172 42 293 42 c 0
 325 42 392 37 471 134 c 1
 484 122 496 109 504 101 c 1
 407 -16 331 -12 293 -12 c 0
 137 -12 59 117 59 269 c 0x5c
289 508 m 0
 202 508 149 437 123 346 c 1
 448 346 l 1
 438 412 398 508 289 508 c 0
255 -81 m 0xa2
 255 -35 303 11 323 28 c 1
 326 25 330 23 334 20 c 1
 334 20 279 -35 279 -79 c 0
 279 -111 312 -125 337 -125 c 0
 361 -125 379 -118 395 -105 c 1
 417 -124 l 1
 396 -145 367 -160 337 -160 c 0
 301 -160 255 -134 255 -81 c 0xa2
EndSplineSet
EndChar

StartChar: Ecaron
Encoding: 282 282 209
Width: 546
Flags: MW
HStem: 0 68 370 57 702 68 755 20G 836 21G 944 20G<137 194 194 194 409 466 466 466>
VStem: 90 59
LayerCount: 2
Fore
SplineSet
508 0 m 1xd2
 91 0 l 1
 91 770 l 1
 402 770 l 2xe2
 442 770 476 772 494 773 c 1
 494 714 l 1
 150 714 l 1
 150 428 l 1
 443 428 l 1
 443 371 l 1
 150 371 l 1
 150 57 l 1
 416 57 l 2
 456 57 490 60 508 61 c 1
 508 0 l 1xd2
328 835 m 1x0c
 275 835 l 1
 137 964 l 1
 194 964 l 1
 301 860 l 1
 333 892 376 933 409 964 c 1
 466 964 l 1
 413 916 380 883 328 835 c 1x0c
EndSplineSet
EndChar

StartChar: ecaron
Encoding: 283 283 246
Width: 563
Flags: MW
HStem: -12 56 290 56<123 448 123 503 114 448> 506 56 622 21G 730 20G<120 177 177 177 392 449 449 449>
VStem: 58 56
LayerCount: 2
Fore
SplineSet
59 269 m 0
 59 430 149 562 289 562 c 0
 487 562 503 358 503 320 c 2
 503 290 l 1
 114 290 l 1
 109 142 172 42 293 42 c 0
 325 42 392 37 471 134 c 1
 484 122 496 109 504 101 c 1
 407 -16 331 -12 293 -12 c 0
 137 -12 59 117 59 269 c 0
289 508 m 0
 202 508 149 437 123 346 c 1
 448 346 l 1
 438 412 398 508 289 508 c 0
311 621 m 1x18
 258 621 l 1
 120 750 l 1
 177 750 l 1
 284 646 l 1
 316 678 359 719 392 750 c 1
 449 750 l 1
 396 702 363 669 311 621 c 1x18
EndSplineSet
EndChar

StartChar: Gcircumflex
Encoding: 284 284 212
Width: 734
Flags: MW
HStem: -12 67 313 68 719 61 836 21G 945 20G<381 434 434 434>
VStem: 66 63 601 49
LayerCount: 2
Fore
SplineSet
653 368 m 1
 653 141 l 2
 653 53 534 -13 421 -15 c 1
 131 -15 64 208 64 368 c 0
 64 681 267 785 416 785 c 0
 542 785 623 702 645 676 c 1
 604 636 l 1
 604 636 514 728 420 728 c 0
 303 728 127 628 127 368 c 0
 127 238 180 46 417 46 c 0
 483 46 598 97 598 150 c 2
 598 308 l 1
 482 308 l 2
 463 308 434 308 412 316 c 1
 412 371 l 1
 438 368 466 368 486 368 c 2
 653 368 l 1
381 965 m 1x18
 434 965 l 1
 572 835 l 1
 515 835 l 1
 407 940 l 1
 300 835 l 1
 243 835 l 1
 295 884 328 916 381 965 c 1x18
EndSplineSet
EndChar

StartChar: Hcircumflex
Encoding: 292 292 213
Width: 726
Flags: MW
HStem: 1 21G 370 57<149 587 149 587> 750 20G<90 149 149 149 587 646 646 646> 836 21G 945 20G<345 398 398 398>
VStem: 90 59<0 370 427 770> 587 59<0 370 370 370 427 770 0 770>
LayerCount: 2
Fore
SplineSet
149 0 m 1
 90 0 l 1
 90 770 l 1
 149 770 l 1
 149 427 l 1
 587 427 l 1
 587 770 l 1
 646 770 l 1
 646 0 l 1
 587 0 l 1
 587 370 l 1
 149 370 l 1
 149 0 l 1
345 965 m 1x18
 398 965 l 1
 536 835 l 1
 479 835 l 1
 371 940 l 1
 264 835 l 1
 207 835 l 1
 259 884 292 916 345 965 c 1x18
EndSplineSet
EndChar

StartChar: Itilde
Encoding: 296 296 216
Width: 242
Flags: MW
HStem: 1 21G 750 20G<93 152 152 152> 831 47<223 223> 880 46<27 27>
VStem: 93 59<0 770>
LayerCount: 2
Fore
SplineSet
152 0 m 1
 93 0 l 1
 93 770 l 1
 152 770 l 1
 152 0 l 1
304 905 m 1x30
 319 877 l 1
 319 877 274 834 223 831 c 0
 156 826 99 882 27 880 c 0
 -15 878 -39 864 -54 852 c 1
 -61 866 -63 868 -69 880 c 1
 -69 880 -24 923 27 926 c 0
 93 931 151 876 223 878 c 0
 266 880 290 893 304 905 c 1x30
EndSplineSet
EndChar

StartChar: itilde
Encoding: 297 297 253
Width: 237
Flags: MW
HStem: 1 21G 631 47<220 220> 680 46<24 24> 694 84
VStem: 93 55<0 550 0 550>
LayerCount: 2
Fore
SplineSet
93 550 m 1x98
 148 550 l 1
 148 0 l 1
 93 0 l 1
 93 550 l 1x98
301 705 m 1x60
 316 677 l 1
 316 677 271 634 220 631 c 0
 153 626 96 682 24 680 c 0
 -18 678 -42 664 -57 652 c 1
 -64 666 -66 668 -72 680 c 1
 -72 680 -27 723 24 726 c 0
 90 731 148 676 220 678 c 0
 263 680 287 693 301 705 c 1x60
EndSplineSet
EndChar

StartChar: Ibreve
Encoding: 300 300 214
Width: 242
Flags: MW
HStem: 1 21G 750 20G<93 152 152 152> 833 45 833 132
VStem: 93 59<0 770>
LayerCount: 2
Fore
SplineSet
152 0 m 1xc8
 93 0 l 1
 93 770 l 1
 152 770 l 1
 152 0 l 1xc8
128 842 m 0x10
 51 842 -7 896 -21 965 c 1
 16 965 l 1x10
 25 919 68 878 128 878 c 0x20
 181 878 222 920 233 965 c 1
 269 965 l 1
 257 894 203 842 128 842 c 0x10
-21 965 m 1
 -21 965 -20 965 -21 965 c 1
EndSplineSet
EndChar

StartChar: ibreve
Encoding: 301 301 251
Width: 237
Flags: MW
HStem: 1 21G 617 45 617 132 694 84
VStem: 93 55<0 550 0 550>
LayerCount: 2
Fore
SplineSet
93 550 m 1x98
 148 550 l 1
 148 0 l 1
 93 0 l 1
 93 550 l 1x98
125 626 m 0x20
 48 626 -10 680 -24 749 c 1
 13 749 l 1x20
 22 703 65 662 125 662 c 0x40
 178 662 219 704 230 749 c 1
 266 749 l 1
 254 678 200 626 125 626 c 0x20
-24 749 m 1
 -24 749 -23 749 -24 749 c 1
EndSplineSet
EndChar

StartChar: Iogonek
Encoding: 302 302 215
Width: 242
Flags: MW
HStem: -160 35<115.5 140 115.5 143> 1 21G 12 20G 750 20G<93 152 152 152>
VStem: 46 24<-95 -58> 93 59<0 770>
LayerCount: 2
Fore
SplineSet
152 0 m 1x54
 93 0 l 1
 93 770 l 1
 152 770 l 1
 152 0 l 1x54
46 -81 m 0xa8
 46 -35 94 11 114 28 c 1
 117 25 121 23 125 20 c 1
 125 20 70 -35 70 -79 c 0
 70 -111 103 -125 128 -125 c 0
 152 -125 170 -118 186 -105 c 1
 208 -124 l 1
 187 -145 158 -160 128 -160 c 0
 92 -160 46 -134 46 -81 c 0xa8
EndSplineSet
EndChar

StartChar: iogonek
Encoding: 303 303 252
Width: 257
Flags: MW
HStem: -160 35<118.5 143 118.5 146> 1 21G 12 20G 694 84
VStem: 49 24<-95 -58> 104 55<0 550 0 550>
LayerCount: 2
Fore
SplineSet
104 550 m 1x54
 159 550 l 1
 159 0 l 1
 104 0 l 1
 104 550 l 1x54
93 732 m 0
 93 756 110 771 132 771 c 0
 152 771 169 756 169 732 c 0
 169 707 152 691 132 691 c 0
 110 691 93 707 93 732 c 0
49 -81 m 0xa8
 49 -35 97 11 117 28 c 1
 120 25 124 23 128 20 c 1
 128 20 73 -35 73 -79 c 0
 73 -111 106 -125 131 -125 c 0
 155 -125 173 -118 189 -105 c 1
 211 -124 l 1
 190 -145 161 -160 131 -160 c 0
 95 -160 49 -134 49 -81 c 0xa8
EndSplineSet
EndChar

StartChar: dotlessi
Encoding: 305 305 122
Width: 237
Flags: MW
HStem: 1 21G 694 84
VStem: 93 55<0 550 0 550>
LayerCount: 2
Fore
SplineSet
93 550 m 1
 148 550 l 1
 148 0 l 1
 93 0 l 1
 93 550 l 1
EndSplineSet
EndChar

StartChar: Jcircumflex
Encoding: 308 308 217
Width: 270
Flags: MW
HStem: -265 21G 750 20G<123 183 183 183> 835 21G 944 20G<129 182 182 182>
VStem: 123 60<-28 770>
LayerCount: 2
Fore
SplineSet
123 770 m 1
 183 770 l 1
 183 -28 l 2
 183 -177 89 -236 24 -261 c 1
 14 -237 6 -223 -2 -201 c 1
 61 -179 123 -126 123 -28 c 2
 123 770 l 1
129 964 m 1x30
 182 964 l 1
 320 834 l 1
 263 834 l 1
 155 939 l 1
 48 834 l 1
 -9 834 l 1
 43 883 76 915 129 964 c 1x30
EndSplineSet
EndChar

StartChar: jcircumflex
Encoding: 309 309 255
Width: 206
Flags: MW
HStem: -285 21G 571 102 627 21G 694 84 736 20G<52 105 105 105>
VStem: 52 55<-55 550>
LayerCount: 2
Fore
SplineSet
52 550 m 1xd4
 107 550 l 1
 107 -55 l 2
 107 -173 47 -253 -9 -280 c 1
 -28 -220 l 1
 14 -201 52 -132 52 -55 c 2
 52 550 l 1xd4
52 756 m 1x28
 105 756 l 1
 243 626 l 1
 186 626 l 1
 78 731 l 1
 -29 626 l 1
 -86 626 l 1
 -34 675 -1 707 52 756 c 1x28
EndSplineSet
EndChar

StartChar: Nacute
Encoding: 323 323 218
Width: 708
Flags: MW
HStem: -9 21G 740 20G<85 150 150 150 563 623 623 623>
VStem: 85 59<-10 604 604 668> 563 60<87 148 148 760 -10 760>
LayerCount: 2
Fore
SplineSet
456 971 m 1
 522 971 l 1
 375 842 l 1
 339 842 l 1
 456 971 l 1
144 -10 m 1
 85 -10 l 1
 85 760 l 1
 150 760 l 1
 563 87 l 1
 563 148 l 1
 563 760 l 1
 623 760 l 1
 623 -10 l 1
 558 -10 l 1
 179 609 l 1
 144 668 l 1
 144 604 l 1
 144 -10 l 1
EndSplineSet
EndChar

StartChar: nacute
Encoding: 324 324 256
Width: 590
Flags: MW
HStem: 1 21G 496 66 627 21G 736 20G<390 456 456 456>
VStem: 90 56<0 353 425 550> 471 56<0 395 0 426.5>
LayerCount: 2
Fore
SplineSet
146 0 m 1
 90 0 l 1
 90 550 l 1
 146 550 l 1
 146 425 l 1
 221 497 322 562 411 562 c 0
 494 562 527 499 527 395 c 2
 527 0 l 1
 471 0 l 1
 471 395 l 2
 471 458 454 502 411 502 c 0
 298 502 204 412 146 353 c 1
 146 0 l 1
390 756 m 1x30
 456 756 l 1
 309 626 l 1
 273 626 l 1
 390 756 l 1x30
EndSplineSet
EndChar

StartChar: Ncaron
Encoding: 327 327 219
Width: 708
Flags: MW
HStem: 1 21G 750 20G<90 155 155 155 568 628 628 628> 839 21G 947 20G<193 250 250 250 465 522 522 522>
VStem: 90 59<0 614 614 678> 568 60<97 158 158 770 0 770>
LayerCount: 2
Fore
SplineSet
149 0 m 1
 90 0 l 1
 90 770 l 1
 155 770 l 1
 568 97 l 1
 568 158 l 1
 568 770 l 1
 628 770 l 1
 628 0 l 1
 563 0 l 1
 184 619 l 1
 149 678 l 1
 149 614 l 1
 149 0 l 1
384 838 m 1x30
 331 838 l 1
 193 967 l 1
 250 967 l 1
 357 863 l 1
 389 895 432 936 465 967 c 1
 522 967 l 1
 469 919 436 886 384 838 c 1x30
EndSplineSet
EndChar

StartChar: ncaron
Encoding: 328 328 257
Width: 590
Flags: MW
HStem: 1 21G 496 66 622 21G 730 20G<147 204 204 204 419 476 476 476>
VStem: 90 56<0 353 425 550> 471 56<0 395 0 426.5>
LayerCount: 2
Fore
SplineSet
146 0 m 1
 90 0 l 1
 90 550 l 1
 146 550 l 1
 146 425 l 1
 221 497 322 562 411 562 c 0
 494 562 527 499 527 395 c 2
 527 0 l 1
 471 0 l 1
 471 395 l 2
 471 458 454 502 411 502 c 0
 298 502 204 412 146 353 c 1
 146 0 l 1
338 621 m 1x30
 285 621 l 1
 147 750 l 1
 204 750 l 1
 311 646 l 1
 343 678 386 719 419 750 c 1
 476 750 l 1
 423 702 390 669 338 621 c 1x30
EndSplineSet
EndChar

StartChar: Obreve
Encoding: 334 334 220
Width: 741
Flags: MW
HStem: -7 63 717 63 836 45 836 132
VStem: 65 60 631 59
LayerCount: 2
Fore
SplineSet
378 785 m 0xcc
 522 785 686 695 687 386 c 1
 687 71 530 -15 375 -15 c 0
 231 -15 64 70 64 384 c 0
 64 697 231 785 378 785 c 0xcc
378 729 m 0
 264 729 123 646 123 386 c 0
 123 122 264 42 375 42 c 0
 495 42 627 121 628 384 c 0
 628 642 495 729 378 729 c 0
377 845 m 0x10
 300 845 242 899 228 968 c 1
 265 968 l 1x10
 274 922 317 881 377 881 c 0x20
 430 881 471 923 482 968 c 1
 518 968 l 1
 506 897 452 845 377 845 c 0x10
228 968 m 1
 228 968 229 968 228 968 c 1
EndSplineSet
EndChar

StartChar: obreve
Encoding: 335 335 258
Width: 572
Flags: MW
HStem: -12 51 511 51 617 45 617 132
VStem: 59 56<189.5 361.5 189.5 380.5> 468 56<188 359>
LayerCount: 2
Fore
SplineSet
59 275 m 0xcc
 59 486 175 562 292 562 c 0
 408 562 524 485 524 275 c 0
 524 62 408 -12 292 -12 c 0
 175 -12 59 58 59 275 c 0xcc
468 275 m 0
 468 443 378 512 292 512 c 0
 205 512 115 448 115 275 c 0
 115 104 205 37 292 37 c 0
 378 37 468 101 468 275 c 0
292 626 m 0x10
 215 626 157 680 143 749 c 1
 180 749 l 1x10
 189 703 232 662 292 662 c 0x20
 345 662 386 704 397 749 c 1
 433 749 l 1
 421 678 367 626 292 626 c 0x10
143 749 m 1
 143 749 144 749 143 749 c 1
EndSplineSet
EndChar

StartChar: OE
Encoding: 338 338 164
Width: 943
Flags: MW
HStem: -7 63 0 68 370 57 702 68 717 63
VStem: -142 60 424 59 669 60
LayerCount: 2
Fore
SplineSet
914 0 m 1x6f
 477 0 l 1x6f
 477 0 407 -15 374 -15 c 0
 230 -15 62 70 62 384 c 0
 62 697 230 785 377 785 c 0
 409 785 444 781 478 770 c 1
 807 770 l 2xb7
 847 770 881 772 899 773 c 1
 899 714 l 1
 555 714 l 1
 555 428 l 1
 848 428 l 1
 848 371 l 1
 555 371 l 1
 555 57 l 1
 821 57 l 2
 861 57 895 60 914 61 c 1
 914 0 l 1x6f
496 74 m 1
 496 696 l 1
 457 720 416 729 377 729 c 0
 263 729 122 646 122 386 c 0
 122 122 263 42 374 42 c 0
 414 42 456 52 496 74 c 1
EndSplineSet
EndChar

StartChar: oe
Encoding: 339 339 169
Width: 957
Flags: MW
HStem: -12 51 290 56<528 854 528 909 519 854> 511 51
VStem: 56 56<189.5 361.5 189.5 380.5> 463 56 464 56
LayerCount: 2
Fore
SplineSet
56 275 m 0xf8
 56 486 172 562 288 562 c 0
 363 562 443 522 496 424 c 1
 543 507 614 562 694 562 c 0
 892 562 909 358 909 320 c 2
 909 290 l 1
 519 290 l 1
 514 142 578 42 698 42 c 0
 730 42 798 37 876 134 c 1
 889 122 901 109 910 101 c 1
 812 -16 736 -12 698 -12 c 0
 610 -12 539 39 492 119 c 1
 438 25 362 -12 288 -12 c 0
 172 -12 56 58 56 275 c 0xf8
464 281 m 1xf4
 462 444 373 512 288 512 c 0
 202 512 112 448 112 275 c 0
 112 104 202 37 288 37 c 0
 372 37 460 98 464 263 c 1
 464 281 l 1xf4
694 508 m 0
 608 508 554 437 528 346 c 1
 854 346 l 1
 843 412 803 508 694 508 c 0
EndSplineSet
EndChar

StartChar: Racute
Encoding: 340 340 221
Width: 639
Flags: MW
HStem: 1 21G 326 54 717 63 838 21G 947 20G<435 501 501 501>
VStem: 90 59<0 331 387 667 726 770> 484 56
LayerCount: 2
Fore
SplineSet
149 0 m 1
 90 0 l 1
 90 770 l 1
 149 770 l 1
 149 726 l 1
 219 770 277 784 338 785 c 1
 457 785 532 699 542 569 c 1
 539 418 445 352 353 333 c 1
 407 288 451 223 493 161 c 0
 532 102 570 43 617 2 c 1
 583 2 577 0 545 0 c 1
 513 27 476 81 438 138 c 0
 381 221 322 309 252 331 c 1
 149 331 l 1
 149 0 l 1
317 387 m 1
 390 388 483 423 484 570 c 0
 484 663 423 725 324 725 c 0
 260 725 207 706 149 667 c 1
 149 387 l 1
 317 387 l 1
435 967 m 1x18
 501 967 l 1
 354 837 l 1
 318 837 l 1
 435 967 l 1x18
EndSplineSet
EndChar

StartChar: racute
Encoding: 341 341 259
Width: 422
Flags: MW
HStem: 1 21G 500 50 500 62 627 21G 736 20G<321 387 387 387>
VStem: 91 56<0 355 447 550>
LayerCount: 2
Fore
SplineSet
91 550 m 1xc4
 147 550 l 1xc4
 147 447 l 1
 191 527 255 562 307 562 c 0xa4
 372 562 411 529 426 516 c 1
 386 475 l 1
 386 475 346 511 311 511 c 0
 234 511 170 408 147 355 c 1
 147 0 l 1
 91 0 l 1
 91 550 l 1xc4
321 756 m 1x18
 387 756 l 1
 240 626 l 1
 204 626 l 1
 321 756 l 1x18
EndSplineSet
EndChar

StartChar: Rcaron
Encoding: 344 344 222
Width: 639
Flags: MW
HStem: 1 21G 326 54 717 63 837 21G 945 20G<168 225 225 225 440 497 497 497>
VStem: 90 59<0 331 387 667 726 770> 484 56
LayerCount: 2
Fore
SplineSet
149 0 m 1
 90 0 l 1
 90 770 l 1
 149 770 l 1
 149 726 l 1
 219 770 277 784 338 785 c 1
 457 785 532 699 542 569 c 1
 539 418 445 352 353 333 c 1
 407 288 451 223 493 161 c 0
 532 102 570 43 617 2 c 1
 583 2 577 0 545 0 c 1
 513 27 476 81 438 138 c 0
 381 221 322 309 252 331 c 1
 149 331 l 1
 149 0 l 1
317 387 m 1
 390 388 483 423 484 570 c 0
 484 663 423 725 324 725 c 0
 260 725 207 706 149 667 c 1
 149 387 l 1
 317 387 l 1
359 836 m 1x18
 306 836 l 1
 168 965 l 1
 225 965 l 1
 332 861 l 1
 364 893 407 934 440 965 c 1
 497 965 l 1
 444 917 411 884 359 836 c 1x18
EndSplineSet
EndChar

StartChar: rcaron
Encoding: 345 345 260
Width: 422
Flags: MW
HStem: 1 21G 500 50 500 62 622 21G 730 20G<71 128 128 128 343 400 400 400>
VStem: 91 56<0 355 447 550>
LayerCount: 2
Fore
SplineSet
91 550 m 1xc4
 147 550 l 1xc4
 147 447 l 1
 191 527 255 562 307 562 c 0xa4
 372 562 411 529 426 516 c 1
 386 475 l 1
 386 475 346 511 311 511 c 0
 234 511 170 408 147 355 c 1
 147 0 l 1
 91 0 l 1
 91 550 l 1xc4
262 621 m 1x18
 209 621 l 1
 71 750 l 1
 128 750 l 1
 235 646 l 1
 267 678 310 719 343 750 c 1
 400 750 l 1
 347 702 314 669 262 621 c 1x18
EndSplineSet
EndChar

StartChar: Sacute
Encoding: 346 346 223
Width: 604
Flags: MW
HStem: -11 61 720 61 836 21G 945 20G<392 458 458 458>
VStem: 81 56 510 56
LayerCount: 2
Fore
SplineSet
62 129 m 1
 104 166 l 1
 157 88 224 43 320 41 c 1
 417 41 500 98 500 203 c 0
 500 304 406 342 308 372 c 0
 197 405 87 445 89 577 c 0
 93 756 234 785 302 785 c 0
 392 785 455 755 504 699 c 1
 487 685 478 676 462 662 c 1
 423 700 378 729 302 729 c 0
 251 729 152 704 147 577 c 0
 144 495 234 455 325 427 c 0
 436 392 558 346 558 203 c 0
 558 56 444 -15 318 -15 c 1
 203 -12 125 31 62 129 c 1
392 965 m 1x30
 458 965 l 1
 311 835 l 1
 275 835 l 1
 392 965 l 1x30
EndSplineSet
EndChar

StartChar: Scircumflex
Encoding: 348 348 225
Width: 604
Flags: MW
HStem: -11 61 720 61 837 21G 946 20G<279 332 332 332>
VStem: 81 56 510 56
LayerCount: 2
Fore
SplineSet
62 129 m 1
 104 166 l 1
 157 88 224 43 320 41 c 1
 417 41 500 98 500 203 c 0
 500 304 406 342 308 372 c 0
 197 405 87 445 89 577 c 0
 93 756 234 785 302 785 c 0
 392 785 455 755 504 699 c 1
 487 685 478 676 462 662 c 1
 423 700 378 729 302 729 c 0
 251 729 152 704 147 577 c 0
 144 495 234 455 325 427 c 0
 436 392 558 346 558 203 c 0
 558 56 444 -15 318 -15 c 1
 203 -12 125 31 62 129 c 1
279 966 m 1x30
 332 966 l 1
 470 836 l 1
 413 836 l 1
 305 941 l 1
 198 836 l 1
 141 836 l 1
 193 885 226 917 279 966 c 1x30
EndSplineSet
EndChar

StartChar: Tcaron
Encoding: 356 356 226
Width: 542
Flags: MW
HStem: 1 21G 713 57<12 538 12 243 302 302 302 538> 837 21G 945 20G<110 167 167 167 382 439 439 439>
VStem: 243 59<0 713 0 713>
LayerCount: 2
Fore
SplineSet
12 713 m 1
 12 770 l 1
 538 770 l 1
 538 713 l 1
 302 713 l 1
 302 0 l 1
 243 0 l 1
 243 713 l 1
 12 713 l 1
301 836 m 1x30
 248 836 l 1
 110 965 l 1
 167 965 l 1
 274 861 l 1
 306 893 349 934 382 965 c 1
 439 965 l 1
 386 917 353 884 301 836 c 1x30
EndSplineSet
EndChar

StartChar: Utilde
Encoding: 360 360 230
Width: 669
Flags: MW
HStem: -12 58<308 371 308 380.5> 750 20G<90 150 150 150 528 588 588 588> 827 47<436 436> 876 46<240 240>
VStem: 76 59 543 59
LayerCount: 2
Fore
SplineSet
588 235 m 1
 587 13 421 -12 340 -12 c 0
 257 -12 91 15 90 235 c 1
 90 770 l 1
 150 770 l 1
 150 237 l 2
 150 69 276 46 340 46 c 0
 402 46 527 73 528 235 c 1
 528 770 l 1
 588 770 l 1
 588 235 l 1
517 901 m 1x30
 532 873 l 1
 532 873 487 830 436 827 c 0
 369 822 312 878 240 876 c 0
 198 874 174 860 159 848 c 1
 152 862 150 864 144 876 c 1
 144 876 189 919 240 922 c 0
 306 927 364 872 436 874 c 0
 479 876 503 889 517 901 c 1x30
EndSplineSet
EndChar

StartChar: utilde
Encoding: 361 361 267
Width: 590
Flags: MW
HStem: -41 20G -12 66 530 20G<75 131 131 131 455 512 512 512> 631 47<396 396> 680 46<200 200>
VStem: 75 56<155 550> 455 57<0 119 119 119 201 550 0 550>
LayerCount: 2
Fore
SplineSet
191 46 m 0
 301 46 397 141 455 201 c 1
 455 550 l 1
 512 550 l 1
 512 0 l 1
 455 0 l 1
 455 119 l 1
 387 48 278 -12 191 -12 c 0
 108 -12 75 51 75 155 c 2
 75 550 l 1
 131 550 l 1
 131 155 l 2
 131 92 147 46 191 46 c 0
477 705 m 1x18
 492 677 l 1
 492 677 447 634 396 631 c 0
 329 626 272 682 200 680 c 0
 158 678 134 664 119 652 c 1
 112 666 110 668 104 680 c 1
 104 680 149 723 200 726 c 0
 266 731 324 676 396 678 c 0
 439 680 463 693 477 705 c 1x18
EndSplineSet
EndChar

StartChar: Ubreve
Encoding: 364 364 227
Width: 669
Flags: MW
HStem: -12 58<308 371 308 380.5> 750 20G<90 150 150 150 528 588 588 588> 836 45 836 132
VStem: 76 59 543 59
LayerCount: 2
Fore
SplineSet
588 235 m 1xcc
 587 13 421 -12 340 -12 c 0
 257 -12 91 15 90 235 c 1
 90 770 l 1
 150 770 l 1
 150 237 l 2
 150 69 276 46 340 46 c 0
 402 46 527 73 528 235 c 1
 528 770 l 1
 588 770 l 1
 588 235 l 1xcc
344 845 m 0x10
 267 845 209 899 195 968 c 1
 232 968 l 1x10
 241 922 284 881 344 881 c 0x20
 397 881 438 923 449 968 c 1
 485 968 l 1
 473 897 419 845 344 845 c 0x10
195 968 m 1
 195 968 196 968 195 968 c 1
EndSplineSet
EndChar

StartChar: ubreve
Encoding: 365 365 264
Width: 590
Flags: MW
HStem: -41 20G -12 66 530 20G<75 131 131 131 455 512 512 512> 617 45 617 132
VStem: 75 56<155 550> 455 57<0 119 119 119 201 550 0 550>
LayerCount: 2
Fore
SplineSet
191 46 m 0xe6
 301 46 397 141 455 201 c 1
 455 550 l 1
 512 550 l 1
 512 0 l 1
 455 0 l 1
 455 119 l 1
 387 48 278 -12 191 -12 c 0
 108 -12 75 51 75 155 c 2
 75 550 l 1
 131 550 l 1
 131 155 l 2
 131 92 147 46 191 46 c 0xe6
301 626 m 0x08
 224 626 166 680 152 749 c 1
 189 749 l 1x08
 198 703 241 662 301 662 c 0x10
 354 662 395 704 406 749 c 1
 442 749 l 1
 430 678 376 626 301 626 c 0x08
152 749 m 1
 152 749 153 749 152 749 c 1
EndSplineSet
EndChar

StartChar: Uring
Encoding: 366 366 229
Width: 669
Flags: MW
HStem: -12 58<308 371 308 380.5> 750 20G<90 150 150 150 528 588 588 588> 836 29 981 27
VStem: 76 59 255 18 400 17 543 59
LayerCount: 2
Fore
SplineSet
588 235 m 1
 587 13 421 -12 340 -12 c 0
 257 -12 91 15 90 235 c 1
 90 770 l 1
 150 770 l 1
 150 237 l 2
 150 69 276 46 340 46 c 0
 402 46 527 73 528 235 c 1
 528 770 l 1
 588 770 l 1
 588 235 l 1
248 915 m 0
 248 961 289 998 338 998 c 0
 386 998 424 961 424 915 c 0
 424 868 386 830 338 830 c 0
 289 830 248 868 248 915 c 0
281 915 m 0
 281 887 307 864 338 864 c 0
 366 864 391 887 391 915 c 0
 391 941 366 965 338 965 c 0
 307 965 281 941 281 915 c 0
EndSplineSet
EndChar

StartChar: uring
Encoding: 367 367 266
Width: 590
Flags: MW
HStem: -41 20G -12 66 530 20G<75 131 131 131 455 512 512 512> 613 29 758 27
VStem: 75 56<155 550> 216 18 361 17 455 57<0 119 119 119 201 550 0 550>
LayerCount: 2
Fore
SplineSet
191 46 m 0
 301 46 397 141 455 201 c 1
 455 550 l 1
 512 550 l 1
 512 0 l 1
 455 0 l 1
 455 119 l 1
 387 48 278 -12 191 -12 c 0
 108 -12 75 51 75 155 c 2
 75 550 l 1
 131 550 l 1
 131 155 l 2
 131 92 147 46 191 46 c 0
209 692 m 0
 209 738 250 775 299 775 c 0
 347 775 385 738 385 692 c 0
 385 645 347 607 299 607 c 0
 250 607 209 645 209 692 c 0
242 692 m 0
 242 664 268 641 299 641 c 0
 327 641 352 664 352 692 c 0
 352 718 327 742 299 742 c 0
 268 742 242 718 242 692 c 0
EndSplineSet
EndChar

StartChar: Uogonek
Encoding: 370 370 228
Width: 669
Flags: MW
HStem: -160 35<371.5 396 371.5 399> -12 58<308 371 308 380.5> 12 20G 750 20G<90 150 150 150 528 588 588 588>
VStem: 76 59 302 24<-95 -58> 543 59
LayerCount: 2
Fore
SplineSet
588 235 m 1x5a
 587 13 421 -12 340 -12 c 0
 257 -12 91 15 90 235 c 1
 90 770 l 1
 150 770 l 1
 150 237 l 2
 150 69 276 46 340 46 c 0
 402 46 527 73 528 235 c 1
 528 770 l 1
 588 770 l 1
 588 235 l 1x5a
302 -81 m 0xa4
 302 -35 350 11 370 28 c 1
 373 25 377 23 381 20 c 1
 381 20 326 -35 326 -79 c 0
 326 -111 359 -125 384 -125 c 0
 408 -125 426 -118 442 -105 c 1
 464 -124 l 1
 443 -145 414 -160 384 -160 c 0
 348 -160 302 -134 302 -81 c 0xa4
EndSplineSet
EndChar

StartChar: uogonek
Encoding: 371 371 265
Width: 590
Flags: MW
HStem: -160 35<461.5 486 461.5 489> -41 20G -12 66 12 20G 530 20G<75 131 131 131 455 512 512 512>
VStem: 75 56<155 550> 392 24<-95 -58> 455 57<0 119 119 119 201 550 0 550>
LayerCount: 2
Fore
SplineSet
191 46 m 0x6d
 301 46 397 141 455 201 c 1
 455 550 l 1
 512 550 l 1
 512 0 l 1
 455 0 l 1
 455 119 l 1
 387 48 278 -12 191 -12 c 0
 108 -12 75 51 75 155 c 2
 75 550 l 1
 131 550 l 1
 131 155 l 2
 131 92 147 46 191 46 c 0x6d
392 -81 m 0x92
 392 -35 440 11 460 28 c 1
 463 25 467 23 471 20 c 1
 471 20 416 -35 416 -79 c 0
 416 -111 449 -125 474 -125 c 0
 498 -125 516 -118 532 -105 c 1
 554 -124 l 1
 533 -145 504 -160 474 -160 c 0
 438 -160 392 -134 392 -81 c 0x92
EndSplineSet
EndChar

StartChar: Wcircumflex
Encoding: 372 372 232
Width: 962
Flags: MW
HStem: 1 21G 750 20G<30 92 92 92 453 521 521 521 885 945 945 945> 834 21G 943 20G<458 511 511 511>
LayerCount: 2
Fore
SplineSet
299 0 m 1
 248 0 l 1
 175 259 103 511 30 770 c 1
 92 770 l 1
 274 88 l 1
 274 88 289 148 453 770 c 1
 521 770 l 1
 701 88 l 1
 716 143 719 146 885 770 c 1
 945 770 l 1
 873 509 800 261 727 0 c 1
 676 0 l 1
 619 203 562 427 487 693 c 1
 299 0 l 1
458 963 m 1x30
 511 963 l 1
 649 833 l 1
 592 833 l 1
 484 938 l 1
 377 833 l 1
 320 833 l 1
 372 882 405 914 458 963 c 1x30
EndSplineSet
EndChar

StartChar: wcircumflex
Encoding: 373 373 269
Width: 763
Flags: MW
HStem: 1 21G 530 20G<30 91 91 91 356 412 412 412 689 744 744 744> 627 21G 736 20G<358 411 411 411>
LayerCount: 2
Fore
SplineSet
246 0 m 1
 189 0 l 1
 30 550 l 1
 91 550 l 1
 221 68 l 1
 356 550 l 1
 412 550 l 1
 549 68 l 1
 606 279 672 520 689 550 c 1
 744 550 l 1
 716 522 578 0 578 0 c 1
 557 0 541 0 524 0 c 1
 384 484 l 1
 344 339 288 145 246 0 c 1
358 756 m 1x30
 411 756 l 1
 549 626 l 1
 492 626 l 1
 384 731 l 1
 277 626 l 1
 220 626 l 1
 272 675 305 707 358 756 c 1x30
EndSplineSet
EndChar

StartChar: Ycircumflex
Encoding: 374 374 235
Width: 601
Flags: MW
HStem: 1 21G 750 20G<22 94 94 94 520 588 588 588> 838 21G 947 20G<278 331 331 331>
VStem: 276 59<0 371 0 371>
LayerCount: 2
Fore
SplineSet
520 770 m 1
 588 770 l 1
 335 371 l 1
 335 0 l 1
 276 0 l 1
 276 371 l 1
 22 770 l 1
 94 770 l 1
 306 437 l 1
 520 770 l 1
278 967 m 1x30
 331 967 l 1
 469 837 l 1
 412 837 l 1
 304 942 l 1
 197 837 l 1
 140 837 l 1
 192 886 225 918 278 967 c 1x30
EndSplineSet
EndChar

StartChar: Ydieresis
Encoding: 376 376 119
Width: 601
Flags: MW
HStem: 1 21G 750 20G<22 94 94 94 520 588 588 588>
VStem: 276 59<0 371 0 371>
LayerCount: 2
Fore
SplineSet
520 770 m 1
 588 770 l 1
 335 371 l 1
 335 0 l 1
 276 0 l 1
 276 371 l 1
 22 770 l 1
 94 770 l 1
 306 437 l 1
 520 770 l 1
163 890 m 0
 163 914 180 929 201 929 c 0
 222 929 238 914 238 890 c 0
 238 865 222 850 201 850 c 0
 180 850 163 865 163 890 c 0
370 890 m 0
 370 914 386 929 408 929 c 0
 429 929 445 914 445 890 c 0
 445 865 429 850 408 850 c 0
 386 850 370 865 370 890 c 0
EndSplineSet
EndChar

StartChar: Zacute
Encoding: 377 377 237
Width: 597
Flags: MW
HStem: 0 64<125 445> 706 64<65 458 65 529> 835 21G 944 20G<409 475 475 475>
LayerCount: 2
Fore
SplineSet
551 75 m 1
 551 10 l 1
 522 -5 445 0 445 0 c 1
 55 0 l 1
 55 72 l 1
 458 706 l 1
 65 706 l 1
 65 770 l 1
 529 770 l 1
 529 700 l 1
 125 64 l 1
 447 64 l 1
 447 64 503 63 551 75 c 1
409 964 m 1x30
 475 964 l 1
 328 834 l 1
 292 834 l 1
 409 964 l 1x30
EndSplineSet
EndChar

StartChar: zacute
Encoding: 378 378 274
Width: 502
Flags: MW
HStem: 0 53<119 407> 498 52<54 385 54 450> 627 21G 736 20G<352 418 418 418>
LayerCount: 2
Fore
SplineSet
467 60 m 1
 467 10 l 1
 454 -5 407 0 407 0 c 1
 54 0 l 1
 54 61 l 1
 385 498 l 1
 54 498 l 1
 54 550 l 1
 450 550 l 1
 450 490 l 1
 119 53 l 1
 409 53 l 1
 409 53 442 52 467 60 c 1
352 756 m 1x30
 418 756 l 1
 271 626 l 1
 235 626 l 1
 352 756 l 1x30
EndSplineSet
EndChar

StartChar: Zcaron
Encoding: 381 381 238
Width: 597
Flags: MW
HStem: 0 64<125 445> 706 64<65 458 65 529> 838 21G 946 20G<160 217 217 217 432 489 489 489>
LayerCount: 2
Fore
SplineSet
551 75 m 1
 551 10 l 1
 522 -5 445 0 445 0 c 1
 55 0 l 1
 55 72 l 1
 458 706 l 1
 65 706 l 1
 65 770 l 1
 529 770 l 1
 529 700 l 1
 125 64 l 1
 447 64 l 1
 447 64 503 63 551 75 c 1
351 837 m 1x30
 298 837 l 1
 160 966 l 1
 217 966 l 1
 324 862 l 1
 356 894 399 935 432 966 c 1
 489 966 l 1
 436 918 403 885 351 837 c 1x30
EndSplineSet
EndChar

StartChar: zcaron
Encoding: 382 382 275
Width: 502
Flags: MW
HStem: 0 53<119 407> 498 52<54 385 54 450> 622 21G 730 20G<90 147 147 147 362 419 419 419>
LayerCount: 2
Fore
SplineSet
467 60 m 1
 467 10 l 1
 454 -5 407 0 407 0 c 1
 54 0 l 1
 54 61 l 1
 385 498 l 1
 54 498 l 1
 54 550 l 1
 450 550 l 1
 450 490 l 1
 119 53 l 1
 409 53 l 1
 409 53 442 52 467 60 c 1
281 621 m 1x30
 228 621 l 1
 90 750 l 1
 147 750 l 1
 254 646 l 1
 286 678 329 719 362 750 c 1
 419 750 l 1
 366 702 333 669 281 621 c 1x30
EndSplineSet
EndChar

StartChar: AEacute
Encoding: 508 508 203
Width: 964
Flags: MW
HStem: -9 21G 259 57<278 510 278 510 246 510> 360 57 740 20G<476 821 821 841> 745 20G
VStem: 725 59
LayerCount: 2
Fore
SplineSet
644 971 m 1xec
 709 971 l 1
 562 842 l 1
 526 842 l 1
 644 971 l 1xec
928 -10 m 1
 510 -10 l 1
 510 259 l 1
 246 259 l 1
 198 171 139 78 91 -10 c 1
 12 -10 l 1
 476 760 l 1
 821 760 l 2
 861 760 895 762 914 763 c 1
 914 704 l 1
 570 704 l 1
 570 418 l 1xf4
 862 418 l 1
 862 361 l 1
 570 361 l 1
 570 47 l 1
 836 47 l 2
 876 47 910 50 928 51 c 1
 928 -10 l 1
510 704 m 1
 278 316 l 1
 510 316 l 1
 510 686 l 1
 510 704 l 1
EndSplineSet
EndChar

StartChar: dotlessj
Encoding: 567 567 254
Width: 206
Flags: MW
HStem: -285 21G 571 102 694 84
VStem: 52 55<-55 550>
LayerCount: 2
Fore
SplineSet
52 550 m 1
 107 550 l 1
 107 -55 l 2
 107 -173 47 -253 -9 -280 c 1
 -28 -220 l 1
 14 -201 52 -132 52 -55 c 2
 52 550 l 1
EndSplineSet
EndChar

StartChar: circumflex
Encoding: 710 710 103
Width: 482
Flags: MW
HStem: 627 21G 736 20G<218 271 271 271>
LayerCount: 2
Fore
SplineSet
218 756 m 1
 271 756 l 1
 409 626 l 1
 352 626 l 1
 244 731 l 1
 137 626 l 1
 80 626 l 1
 132 675 165 707 218 756 c 1
EndSplineSet
EndChar

StartChar: caron
Encoding: 711 711 112
Width: 482
Flags: MW
HStem: 622 21G 730 20G<80 137 137 137 352 409 409 409>
LayerCount: 2
Fore
SplineSet
271 621 m 1
 218 621 l 1
 80 750 l 1
 137 750 l 1
 244 646 l 1
 276 678 319 719 352 750 c 1
 409 750 l 1
 356 702 323 669 271 621 c 1
EndSplineSet
EndChar

StartChar: breve
Encoding: 728 728 162
Width: 419
Flags: MW
HStem: 617 45 617 132
LayerCount: 2
Fore
SplineSet
216 626 m 0x40
 139 626 81 680 67 749 c 1
 104 749 l 1x40
 113 703 156 662 216 662 c 0x80
 269 662 310 704 321 749 c 1
 357 749 l 1
 345 678 291 626 216 626 c 0x40
67 749 m 1
 67 749 68 749 67 749 c 1
EndSplineSet
EndChar

StartChar: dotaccent
Encoding: 729 729 166
Width: 177
Flags: MW
HStem: 685 85
VStem: 52 75<715.5 740>
LayerCount: 2
Fore
SplineSet
52 728 m 0
 52 752 69 767 90 767 c 0
 111 767 127 752 127 728 c 0
 127 703 111 688 90 688 c 0
 69 688 52 703 52 728 c 0
EndSplineSet
EndChar

StartChar: ring
Encoding: 730 730 159
Width: 302
Flags: MW
HStem: 613 29 758 27
VStem: 72 18 217 17
LayerCount: 2
Fore
SplineSet
65 692 m 0
 65 738 106 775 155 775 c 0
 203 775 241 738 241 692 c 0
 241 645 203 607 155 607 c 0
 106 607 65 645 65 692 c 0
98 692 m 0
 98 664 124 641 155 641 c 0
 183 641 208 664 208 692 c 0
 208 718 183 742 155 742 c 0
 124 742 98 718 98 692 c 0
EndSplineSet
EndChar

StartChar: ogonek
Encoding: 731 731 172
Width: 304
Flags: MW
HStem: -160 35<141.5 166 141.5 169> 12 20G
VStem: 72 24<-95 -58>
LayerCount: 2
Fore
SplineSet
72 -81 m 0
 72 -35 120 11 140 28 c 1
 143 25 147 23 151 20 c 1
 151 20 96 -35 96 -79 c 0
 96 -111 129 -125 154 -125 c 0
 178 -125 196 -118 212 -105 c 1
 234 -124 l 1
 213 -145 184 -160 154 -160 c 0
 118 -160 72 -134 72 -81 c 0
EndSplineSet
EndChar

StartChar: tilde
Encoding: 732 732 107
Width: 523
Flags: MW
HStem: 631 47<363 363> 680 46<167 167>
LayerCount: 2
Fore
SplineSet
444 705 m 1
 459 677 l 1
 459 677 414 634 363 631 c 0
 296 626 239 682 167 680 c 0
 125 678 101 664 86 652 c 1
 79 666 77 668 71 680 c 1
 71 680 116 723 167 726 c 0
 233 731 291 676 363 678 c 0
 406 680 430 693 444 705 c 1
EndSplineSet
EndChar

StartChar: hungarumlaut
Encoding: 733 733 161
Width: 477
Flags: MW
HStem: 626 130<77 260 77 260 219 219 219 255>
LayerCount: 2
Fore
SplineSet
194 756 m 1
 260 756 l 1
 113 626 l 1
 77 626 l 1
 194 756 l 1
336 756 m 1
 401 756 l 1
 255 626 l 1
 219 626 l 1
 336 756 l 1
EndSplineSet
EndChar

StartChar: Wgrave
Encoding: 7808 7808 234
Width: 962
Flags: MW
HStem: 1 21G 750 20G<30 92 92 92 453 521 521 521 885 945 945 945> 837 21G 959 20G
LayerCount: 2
Fore
SplineSet
299 0 m 1
 248 0 l 1
 175 259 103 511 30 770 c 1
 92 770 l 1
 274 88 l 1
 274 88 289 148 453 770 c 1
 521 770 l 1
 701 88 l 1
 716 143 719 146 885 770 c 1
 945 770 l 1
 873 509 800 261 727 0 c 1
 676 0 l 1
 619 203 562 427 487 693 c 1
 299 0 l 1
321 965 m 1x30
 387 965 l 1
 504 835 l 1
 468 835 l 1
 321 965 l 1x30
EndSplineSet
EndChar

StartChar: wgrave
Encoding: 7809 7809 271
Width: 763
Flags: MW
HStem: 1 21G 530 20G<30 91 91 91 356 412 412 412 689 744 744 744> 628 21G 750 20G
LayerCount: 2
Fore
SplineSet
246 0 m 1
 189 0 l 1
 30 550 l 1
 91 550 l 1
 221 68 l 1
 356 550 l 1
 412 550 l 1
 549 68 l 1
 606 279 672 520 689 550 c 1
 744 550 l 1
 716 522 578 0 578 0 c 1
 557 0 541 0 524 0 c 1
 384 484 l 1
 344 339 288 145 246 0 c 1
212 756 m 1x30
 278 756 l 1
 395 626 l 1
 359 626 l 1
 212 756 l 1x30
EndSplineSet
EndChar

StartChar: Wdieresis
Encoding: 7812 7812 233
Width: 962
Flags: MW
HStem: 1 21G 750 20G<30 92 92 92 453 521 521 521 885 945 945 945> 836 85
VStem: 343 75<867 891> 550 75<867 891>
LayerCount: 2
Fore
SplineSet
299 0 m 1
 248 0 l 1
 175 259 103 511 30 770 c 1
 92 770 l 1
 274 88 l 1
 274 88 289 148 453 770 c 1
 521 770 l 1
 701 88 l 1
 716 143 719 146 885 770 c 1
 945 770 l 1
 873 509 800 261 727 0 c 1
 676 0 l 1
 619 203 562 427 487 693 c 1
 299 0 l 1
343 879 m 0x38
 343 903 360 919 381 919 c 0
 402 919 418 903 418 879 c 0
 418 855 402 839 381 839 c 0
 360 839 343 855 343 879 c 0x38
550 879 m 0
 550 903 566 919 588 919 c 0
 609 919 625 903 625 879 c 0
 625 855 609 839 588 839 c 0
 566 839 550 855 550 879 c 0
EndSplineSet
EndChar

StartChar: wdieresis
Encoding: 7813 7813 270
Width: 763
Flags: MW
HStem: 1 21G 530 20G<30 91 91 91 356 412 412 412 689 744 744 744> 626 85
VStem: 243 75<657 681> 450 75<657 681>
LayerCount: 2
Fore
SplineSet
246 0 m 1
 189 0 l 1
 30 550 l 1
 91 550 l 1
 221 68 l 1
 356 550 l 1
 412 550 l 1
 549 68 l 1
 606 279 672 520 689 550 c 1
 744 550 l 1
 716 522 578 0 578 0 c 1
 557 0 541 0 524 0 c 1
 384 484 l 1
 344 339 288 145 246 0 c 1
243 669 m 0x38
 243 693 260 709 281 709 c 0
 302 709 318 693 318 669 c 0
 318 645 302 629 281 629 c 0
 260 629 243 645 243 669 c 0x38
450 669 m 0
 450 693 466 709 488 709 c 0
 509 709 525 693 525 669 c 0
 525 645 509 629 488 629 c 0
 466 629 450 645 450 669 c 0
EndSplineSet
EndChar

StartChar: Ygrave
Encoding: 7922 7922 236
Width: 601
Flags: MW
HStem: 1 21G 750 20G<22 94 94 94 520 588 588 588> 837 21G 959 20G
VStem: 276 59<0 371 0 371>
LayerCount: 2
Fore
SplineSet
520 770 m 1
 588 770 l 1
 335 371 l 1
 335 0 l 1
 276 0 l 1
 276 371 l 1
 22 770 l 1
 94 770 l 1
 306 437 l 1
 520 770 l 1
150 965 m 1x30
 216 965 l 1
 333 835 l 1
 297 835 l 1
 150 965 l 1x30
EndSplineSet
EndChar

StartChar: ygrave
Encoding: 7923 7923 273
Width: 499
Flags: MW
HStem: -285 21G 530 20G<26 85 85 85 439 503 503 503> 628 21G 750 20G
LayerCount: 2
Fore
SplineSet
26 550 m 1
 85 550 l 1
 252 119 l 1
 328 306 419 526 439 550 c 1
 503 550 l 1
 475 513 433 418 243 -47 c 1
 218 -111 191 -178 142 -225 c 0
 94 -271 49 -281 16 -284 c 1
 10 -265 7 -248 2 -229 c 1
 60 -222 84 -203 104 -183 c 1
 103 -183 l 1
 131 -156 152 -127 191 -32 c 2
 221 42 l 1
 26 550 l 1
103 756 m 1x30
 169 756 l 1
 286 626 l 1
 250 626 l 1
 103 756 l 1x30
EndSplineSet
EndChar

StartChar: endash
Encoding: 8211 8211 26
Width: 645
Flags: MW
HStem: 249 47<59 594 59 594>
LayerCount: 2
Fore
SplineSet
594 296 m 1
 594 249 l 1
 59 249 l 1
 59 296 l 1
 594 296 l 1
EndSplineSet
EndChar

StartChar: emdash
Encoding: 8212 8212 92
Width: 775
Flags: MW
HStem: 249 47<59 727 59 727>
LayerCount: 2
Fore
SplineSet
727 296 m 1
 727 249 l 1
 59 249 l 1
 59 296 l 1
 727 296 l 1
EndSplineSet
EndChar

StartChar: quoteleft
Encoding: 8216 8216 97
Width: 191
Flags: MW
HStem: 552 21G 770 20G
VStem: 52 90<624.5 631 604.5 645>
LayerCount: 2
Fore
SplineSet
142 618 m 0
 142 591 123 571 99 571 c 0
 67 571 52 604 52 645 c 0
 53 697 77 735 113 784 c 1
 135 772 l 1
 107 735 86 716 78 665 c 1
 116 665 142 644 142 618 c 0
EndSplineSet
EndChar

StartChar: quoteright
Encoding: 8217 8217 98
Width: 191
Flags: MW
HStem: 531 21G 749 20G<82.5 110.5>
VStem: 52 90<709.5 715.5 695 736>
LayerCount: 2
Fore
SplineSet
52 723 m 0
 52 749 71 769 94 769 c 0
 127 769 142 736 142 695 c 0
 141 644 117 605 81 556 c 1
 72 561 65 564 58 568 c 1
 87 605 108 624 116 676 c 1
 78 676 52 696 52 723 c 0
EndSplineSet
EndChar

StartChar: quotedblleft
Encoding: 8220 8220 79
Width: 362
Flags: MW
HStem: 540 93 750 20G
VStem: 53 89 229 89
LayerCount: 2
Fore
SplineSet
140 618 m 0
 140 591 122 571 98 571 c 0
 65 571 51 604 51 645 c 0
 52 697 76 735 112 784 c 1
 134 772 l 1
 105 735 85 716 77 665 c 1
 115 665 140 644 140 618 c 0
316 618 m 0
 316 591 297 571 274 571 c 0
 241 571 227 604 227 645 c 0
 228 697 251 735 287 784 c 1
 310 772 l 1
 281 735 261 716 252 665 c 1
 290 665 316 644 316 618 c 0
EndSplineSet
EndChar

StartChar: quotedblright
Encoding: 8221 8221 80
Width: 362
Flags: MW
HStem: 541 21G 677 93
VStem: 51 89<709.5 715.5 695 736> 227 89<709.5 715.5 695 736>
LayerCount: 2
Fore
SplineSet
227 723 m 0
 227 749 245 769 269 769 c 0
 302 769 316 736 316 695 c 0
 315 644 291 605 255 556 c 1
 246 561 239 564 233 568 c 1
 262 605 282 624 290 676 c 1
 252 676 227 696 227 723 c 0
51 723 m 0
 51 749 70 769 93 769 c 0
 126 769 140 736 140 695 c 0
 139 644 116 605 80 556 c 1
 71 561 63 564 57 568 c 1
 86 605 107 624 115 676 c 1
 77 676 51 696 51 723 c 0
EndSplineSet
EndChar

StartChar: bullet
Encoding: 8226 8226 108
Width: 324
Flags: MW
HStem: 124 216<136.5 195>
VStem: 62 205<202.5 264.5>
LayerCount: 2
Fore
SplineSet
62 234 m 0
 62 295 107 340 166 340 c 0
 224 340 267 295 267 234 c 0
 267 171 224 124 166 124 c 0
 107 124 62 171 62 234 c 0
EndSplineSet
EndChar

StartChar: ellipsis
Encoding: 8230 8230 105
Width: 600
Flags: MW
HStem: -7 93
VStem: 54 83 260 83 466 83
CounterMasks: 1 70
LayerCount: 2
Fore
SplineSet
49 47 m 0
 49 77 71 100 99 100 c 0
 125 100 146 77 146 47 c 0
 146 16 125 -7 99 -7 c 0
 71 -7 49 16 49 47 c 0
256 47 m 0
 256 77 277 100 305 100 c 0
 332 100 352 77 352 47 c 0
 352 16 332 -7 305 -7 c 0
 277 -7 256 16 256 47 c 0
462 47 m 0
 462 77 484 100 511 100 c 0
 538 100 559 77 559 47 c 0
 559 16 538 -7 511 -7 c 0
 484 -7 462 16 462 47 c 0
EndSplineSet
EndChar

StartChar: trademark
Encoding: 8482 8482 104
Width: 836
Flags: MW
HStem: 1 21G 713 57 750 20G
VStem: 74 59 486 60 1095 60
LayerCount: 2
Fore
SplineSet
455 401 m 1
 414 401 l 1
 414 749 l 1
 458 749 l 1
 581 480 l 1
 580 483 l 1
 589 448 l 1
 618 448 l 1
 620 458 625 472 627 483 c 1
 626 480 l 1
 666 571 705 659 746 749 c 1
 789 749 l 1
 789 401 l 1
 747 401 l 1
 747 644 l 1
 717 646 l 1
 715 636 710 621 708 611 c 1
 709 613 l 1
 624 401 l 1
 581 401 l 1
 493 613 l 1
 495 611 l 1
 485 646 l 1
 455 644 l 1
 455 401 l 1
58 711 m 1
 58 749 l 1
 353 749 l 1
 353 711 l 1
 227 711 l 1
 227 401 l 1
 184 401 l 1
 184 711 l 1
 58 711 l 1
EndSplineSet
EndChar

StartChar: minus
Encoding: 8722 8722 93
Width: 644
Flags: MW
HStem: 248 49<59 593 59 593>
LayerCount: 2
Fore
SplineSet
593 297 m 1
 593 248 l 1
 59 248 l 1
 59 297 l 1
 593 297 l 1
EndSplineSet
EndChar

StartChar: ff
Encoding: 64256 64256 193
Width: 638
Flags: MW
HStem: 1 21G 498 52<30 103 30 103 158 385 440 608> 783 52
VStem: 103 55<0 498 0 498 550 650> 385 55<0 498 0 498 550 650>
LayerCount: 2
Fore
SplineSet
440 650 m 1
 440 550 l 1
 608 550 l 1
 608 498 l 1
 440 498 l 1
 440 0 l 1
 385 0 l 1
 385 498 l 1
 158 498 l 1
 158 0 l 1
 103 0 l 1
 103 498 l 1
 30 498 l 1
 30 550 l 1
 103 550 l 1
 103 650 l 2
 103 751 141 825 249 825 c 0
 301 825 371 789 410 767 c 1
 439 804 477 825 530 825 c 0
 592 825 666 784 691 768 c 1
 655 732 l 1
 655 732 577 773 530 773 c 0
 446 773 441 720 440 650 c 1
158 650 m 1
 158 550 l 1
 385 550 l 1
 385 650 l 2
 385 673 387 696 392 720 c 1
 389 722 307 773 249 773 c 0
 165 773 160 720 158 650 c 1
EndSplineSet
Ligature2: "'liga' Standard Ligatures in Latin lookup 2 subtable" f f
EndChar

StartChar: fi
Encoding: 64257 64257 106
Width: 566
Flags: MW
HStem: 1 21G 498 52<37 110 37 110 165 432> 694 84 783 52
VStem: 110 55<0 498 0 498 550 650> 453 55
LayerCount: 2
Fore
SplineSet
165 650 m 1
 165 550 l 1
 487 550 l 1
 487 0 l 1
 432 0 l 1
 432 498 l 1
 165 498 l 1
 165 0 l 1
 110 0 l 1
 110 498 l 1
 37 498 l 1
 37 550 l 1
 110 550 l 1
 110 650 l 2
 110 751 155 825 263 825 c 0
 348 825 442 763 471 742 c 1
 435 707 l 1
 435 707 323 773 264 773 c 0
 181 773 167 720 165 650 c 1
EndSplineSet
Ligature2: "'liga' Standard Ligatures in Latin lookup 2 subtable" f i
EndChar

StartChar: fl
Encoding: 64258 64258 165
Width: 603
Flags: MW
HStem: -12 21G 1 21G 498 52<36 110 36 110 165 333> 783 52
VStem: 110 55<0 498 0 498 550 650> 469 55
LayerCount: 2
Fore
SplineSet
442 820 m 1x7c
 497 820 l 1
 497 141 l 2
 497 116 497 83 514 65 c 1
 529 51 550 43 576 40 c 1
 575 20 576 6 575 -12 c 1xbc
 543 -11 499 -5 474 20 c 0
 442 52 442 104 442 141 c 2
 442 820 l 1x7c
165 650 m 1
 165 550 l 1
 333 550 l 1
 333 498 l 1
 165 498 l 1
 165 0 l 1
 110 0 l 1
 110 498 l 1
 36 498 l 1
 36 550 l 1
 110 550 l 1
 110 650 l 2
 110 751 147 825 255 825 c 0
 291 825 334 810 367 794 c 1
 367 738 l 1
 367 738 293 773 255 773 c 0
 171 773 166 720 165 650 c 1
EndSplineSet
Ligature2: "'liga' Standard Ligatures in Latin lookup 2 subtable" f l
EndChar

StartChar: f_f_i
Encoding: 64259 64259 194
Width: 837
Flags: MW
HStem: 1 21G 498 52<34 108 34 108 163 389 444 711> 783 52<211 279.5 199 282.5 515 572.5>
VStem: 108 55<0 498 0 498 550 660> 389 55<0 498 0 498 550 660> 711 55<0 498 498 498>
LayerCount: 2
Fore
SplineSet
444 660 m 1
 444 550 l 1
 766 550 l 1
 766 0 l 1
 711 0 l 1
 711 498 l 1
 444 498 l 1
 444 0 l 1
 389 0 l 1
 389 498 l 1
 163 498 l 1
 163 0 l 1
 108 0 l 1
 108 498 l 1
 34 498 l 1
 34 550 l 1
 108 550 l 1
 108 660 l 2
 108 761 145 835 253 835 c 0
 306 835 380 797 417 775 c 1
 447 813 488 835 542 835 c 0
 627 835 720 773 749 752 c 1
 714 717 l 1
 714 717 602 783 543 783 c 0
 460 783 445 730 444 660 c 1
163 660 m 1
 163 550 l 1
 389 550 l 1
 389 660 l 2
 389 683 391 706 397 730 c 1
 397 730 312 783 253 783 c 0
 169 783 164 730 163 660 c 1
EndSplineSet
Ligature2: "'liga' Standard Ligatures in Latin lookup 2 subtable" f f i
EndChar

StartChar: f_f_l
Encoding: 64260 64260 195
Width: 874
Flags: MW
HStem: -41 20G -12 21G 498 52<33 107 33 107 162 388 443 611> 783 52<210 278 198 281.5 507.5 552>
VStem: 107 55<0 498 0 498 550 660> 388 55<0 498 0 498 550 660> 720 55<141 830>
LayerCount: 2
Fore
SplineSet
720 830 m 1
 775 830 l 1
 775 141 l 2
 775 116 775 83 793 65 c 0
 808 51 828 43 854 40 c 1
 853 20 854 6 853 -12 c 1
 822 -11 777 -5 753 20 c 1
 720 52 720 104 720 141 c 2
 720 830 l 1
443 660 m 1
 443 550 l 1
 611 550 l 1
 611 498 l 1
 443 498 l 1
 443 0 l 1
 388 0 l 1
 388 498 l 1
 162 498 l 1
 162 0 l 1
 107 0 l 1
 107 498 l 1
 33 498 l 1
 33 550 l 1
 107 550 l 1
 107 660 l 2
 107 761 144 835 252 835 c 0
 304 835 375 799 413 777 c 1
 442 814 481 835 534 835 c 0
 570 835 612 820 646 804 c 1
 646 748 l 1
 646 748 572 783 534 783 c 0
 450 783 444 730 443 660 c 1
162 660 m 1
 162 550 l 1
 388 550 l 1
 388 660 l 2
 388 683 390 706 396 730 c 1
 392 732 311 783 252 783 c 0
 168 783 163 730 162 660 c 1
EndSplineSet
Ligature2: "'liga' Standard Ligatures in Latin lookup 2 subtable" f f l
EndChar

StartChar: eight.lnum
Encoding: 65545 -1 191
Width: 568
Flags: MW
HStem: 726 47<254 323>
VStem: 69 53<96 160 96 160> 89 54<578.5 658 578.5 673.5> 434 56<565.5 658> 454 55<95.5 192.5>
LayerCount: 2
Fore
SplineSet
490 613 m 0xb0
 490 511 385 430 325 393 c 1
 419 327 509 252 509 160 c 0
 509 -24 301 -16 288 -16 c 0
 277 -16 69 -22 69 160 c 1xc8
 71 263 164 349 234 392 c 1
 155 457 89 529 89 613 c 0
 89 734 194 773 288 773 c 0
 383 773 490 734 490 613 c 0xb0
454 160 m 0xc8
 454 225 367 296 271 367 c 1
 206 326 129 253 122 160 c 1
 122 32 279 36 288 36 c 0
 299 36 454 31 454 160 c 0xc8
276 429 m 1
 293 428 l 1
 334 449 434 518 434 613 c 0
 434 703 358 726 288 726 c 0
 220 726 143 703 143 613 c 0xb0
 143 544 206 486 276 429 c 1
EndSplineSet
EndChar

StartChar: five.lnum
Encoding: 65542 -1 188
Width: 582
Flags: MW
HStem: -16 56<235 330 235 347.5> 448 55<262.5 350> 700 58<156 156 156 466>
VStem: 96 60<468 700 468 758 468 758> 472 53<194 316>
LayerCount: 2
Fore
SplineSet
156 700 m 1
 156 468 l 1
 196 486 237 503 287 503 c 0
 443 503 525 408 525 280 c 0
 525 70 419 -16 276 -16 c 0
 167 -16 95 45 77 63 c 1
 89 78 99 92 110 106 c 1
 110 106 194 40 276 40 c 0
 384 40 472 110 472 278 c 0
 472 354 413 448 287 448 c 0
 238 448 190 441 144 411 c 1
 96 411 l 1
 96 758 l 1
 466 758 l 1
 466 700 l 1
 156 700 l 1
EndSplineSet
EndChar

StartChar: fj
Encoding: 65547 -1 196
Width: 566
Flags: MW
HStem: -285 21G -41 20G 498 52<37 110 37 110 165 432> 783 52<222.5 293.5>
VStem: 110 55<0 498 0 498 550 660> 432 55<-55 498 498 498>
LayerCount: 2
Fore
SplineSet
165 660 m 1
 165 550 l 1
 487 550 l 1
 487 -55 l 2
 487 -173 427 -253 371 -280 c 1
 352 -220 l 1
 394 -201 432 -132 432 -55 c 2
 432 498 l 1
 165 498 l 1
 165 0 l 1
 110 0 l 1
 110 498 l 1
 37 498 l 1
 37 550 l 1
 110 550 l 1
 110 660 l 2
 110 761 155 835 263 835 c 0
 348 835 442 773 471 752 c 1
 435 717 l 1
 435 717 323 783 264 783 c 0
 181 783 167 730 165 660 c 1
EndSplineSet
Ligature2: "'liga' Standard Ligatures in Latin lookup 2 subtable" f j
EndChar

StartChar: four.lnum
Encoding: 65541 -1 187
Width: 607
Flags: MW
HStem: 1 21G 191 58<158 416 158 416 477 586> 738 20G<439 477 477 477>
VStem: 416 61<0 191 0 191 249 652 652 652>
LayerCount: 2
Fore
SplineSet
586 249 m 1
 586 191 l 1
 477 191 l 1
 477 0 l 1
 416 0 l 1
 416 191 l 1
 38 191 l 1
 38 227 l 1
 439 758 l 1
 477 758 l 1
 477 249 l 1
 586 249 l 1
158 249 m 1
 416 249 l 1
 416 652 l 1
 139 277 l 1
 101 240 l 1
 158 249 l 1
EndSplineSet
EndChar

StartChar: nine.lnum
Encoding: 65546 -1 192
Width: 594
Flags: MW
HStem: -16 62<227.5 339.5> 300 56<226.5 293.5> 718 55<225.5 338.5>
VStem: 64 55<459 558 459 568> 486 51
LayerCount: 2
Fore
SplineSet
265 300 m 0
 157 300 64 357 64 522 c 0
 64 614 118 773 290 773 c 0
 447 773 537 643 537 411 c 0
 537 182 420 -16 259 -16 c 0
 188 -16 125 24 99 43 c 1
 113 57 125 68 138 81 c 1
 138 81 200 46 255 46 c 0
 427 46 484 315 487 476 c 1
 398 338 322 300 265 300 c 0
290 718 m 0
 161 718 119 594 119 522 c 0
 119 396 188 356 265 356 c 0
 330 356 411 393 476 533 c 1
 453 652 387 718 290 718 c 0
EndSplineSet
EndChar

StartChar: one.lnum
Encoding: 65538 -1 184
Width: 349
Flags: MW
HStem: 1 21G 738 20G<195 266 266 266>
VStem: 205 61<0 700 700 700>
LayerCount: 2
Fore
SplineSet
266 0 m 1
 205 0 l 1
 205 700 l 1
 179 678 130 637 98 610 c 1
 59 655 l 1
 107 691 149 721 195 758 c 1
 266 758 l 1
 266 0 l 1
EndSplineSet
EndChar

StartChar: seven.lnum
Encoding: 65544 -1 190
Width: 492
Flags: MW
HStem: -5 21G 692 66<51 468 51 398>
LayerCount: 2
Fore
SplineSet
51 692 m 1
 51 758 l 1
 468 758 l 1
 468 709 l 1
 387 539 143 60 54 -2 c 1
 12 37 l 1
 86 94 299 487 398 692 c 1
 51 692 l 1
EndSplineSet
EndChar

StartChar: six.lnum
Encoding: 65543 -1 189
Width: 594
Flags: MW
HStem: -16 55<267 380 267 401> 402 56<311.5 379> 712 61<265.5 377>
VStem: 68 51 486 55<200 298.5>
LayerCount: 2
Fore
SplineSet
340 458 m 0
 448 458 541 401 541 236 c 0
 541 143 487 -16 315 -16 c 0
 158 -16 68 114 68 347 c 0
 68 576 185 773 346 773 c 0
 418 773 480 734 506 715 c 1
 493 700 480 689 468 677 c 1
 468 677 404 712 350 712 c 0
 178 712 121 442 118 281 c 1
 207 419 283 458 340 458 c 0
315 39 m 0
 445 39 486 164 486 236 c 0
 486 361 418 402 340 402 c 0
 276 402 195 364 129 224 c 1
 152 106 219 39 315 39 c 0
EndSplineSet
EndChar

StartChar: three.lnum
Encoding: 65540 -1 186
Width: 529
Flags: MW
HStem: -16 63<195 240.5 195 253> 712 61<188 255>
VStem: 332 54<590 649> 422 54<197 277 176.5 312>
LayerCount: 2
Fore
SplineSet
92 651 m 1
 62 679 l 1
 62 679 132 773 227 773 c 0
 312 773 386 710 386 621 c 0
 386 559 334 506 282 465 c 1
 386 451 473 377 476 277 c 1
 476 76 311 -16 195 -16 c 1
 120 -17 62 23 42 37 c 1
 79 74 l 1
 79 74 136 45 195 47 c 1
 286 47 422 117 422 277 c 0
 422 347 356 413 281 413 c 0
 224 413 175 401 150 393 c 1
 150 442 l 1
 248 480 332 533 332 621 c 0
 332 677 282 712 228 712 c 0
 148 712 108 672 92 651 c 1
134 387 m 1
 150 377 l 1
 150 393 l 1
 141 390 l 2
 132 387 134 387 134 387 c 1
EndSplineSet
EndChar

StartChar: two.lnum
Encoding: 65539 -1 185
Width: 522
Flags: MW
HStem: 0 58<133 473 133 473> 714 59<257 257>
VStem: 398 55<529 630>
LayerCount: 2
Fore
SplineSet
257 714 m 0
 174 713 124 654 103 623 c 1
 88 638 67 658 67 658 c 1
 97 706 157 772 258 773 c 1
 369 773 453 707 453 590 c 0
 453 468 254 210 133 58 c 1
 473 58 l 1
 473 0 l 1
 54 0 l 1
 54 53 l 1
 54 53 398 448 398 588 c 0
 398 672 325 715 257 714 c 0
93 605 m 1
 118 608 l 1
 103 623 l 1
 96 612 93 605 93 605 c 1
EndSplineSet
EndChar

StartChar: zero.lnum
Encoding: 65537 -1 183
Width: 663
Flags: MW
HStem: -16 64<282.5 396.5 282.5 410.5> 714 59<279.5 400.5>
VStem: 63 61<259.5 498.5 259.5 529> 552 60<259.5 498.5>
LayerCount: 2
Fore
SplineSet
63 379 m 0
 63 679 197 773 339 773 c 0
 482 773 612 679 612 379 c 0
 612 79 482 -16 339 -16 c 0
 197 -16 63 79 63 379 c 0
552 379 m 0
 552 618 462 714 339 714 c 0
 220 714 124 618 124 379 c 0
 124 140 226 48 339 48 c 0
 454 48 552 140 552 379 c 0
EndSplineSet
EndChar
